<?xml version="1.0" standalone="no"?>
<!DOCTYPE svg PUBLIC "-//W3C//DTD SVG 20010904//EN"
 "http://www.w3.org/TR/2001/REC-SVG-20010904/DTD/svg10.dtd">
<svg version="1.0" xmlns="http://www.w3.org/2000/svg"
 width="628.000000pt" height="628.000000pt" viewBox="0 0 628.000000 628.000000"
 preserveAspectRatio="xMidYMid meet">
<metadata>
Created by potrace 1.14, written by Peter Selinger 2001-2017
</metadata>
<g transform="translate(0.000000,628.000000) scale(0.100000,-0.100000)"
fill="#000000" stroke="none">
<path d="M2909 6066 c-2 -2 -44 -6 -94 -10 -49 -3 -101 -8 -115 -10 -14 -2
-52 -7 -85 -11 -32 -4 -68 -9 -80 -11 -11 -3 -40 -7 -65 -10 -24 -3 -47 -7
-51 -9 -3 -2 -21 -7 -40 -10 -19 -3 -61 -13 -94 -21 -33 -9 -69 -17 -80 -20
-11 -2 -51 -13 -90 -25 -38 -11 -80 -23 -92 -26 -13 -3 -23 -9 -23 -14 0 -8
37 -63 215 -319 17 -25 56 -81 85 -125 30 -44 59 -84 63 -90 4 -5 100 -143
211 -305 112 -162 210 -303 218 -314 13 -17 18 -18 123 -3 106 14 342 16 430
3 22 -4 54 -8 70 -11 66 -10 226 -55 301 -85 288 -114 548 -335 701 -594 65
-111 73 -127 114 -225 61 -144 81 -225 114 -436 13 -84 14 -435 2 -505 -3 -14
-8 -45 -11 -70 -20 -133 -88 -346 -156 -480 -112 -222 -296 -428 -505 -566
-147 -96 -363 -186 -509 -209 -17 -3 -42 -7 -56 -10 -130 -23 -353 -27 -493
-8 -613 83 -1094 515 -1246 1121 -11 42 -22 94 -25 116 -4 21 -8 41 -10 45 -9
14 -18 145 -21 281 -3 164 6 270 35 415 11 55 20 105 20 110 0 6 -28 32 -63
60 -34 27 -64 52 -67 55 -3 3 -52 43 -110 90 -58 46 -107 87 -110 90 -3 3 -52
44 -110 90 -133 107 -140 113 -154 125 -6 6 -58 49 -116 95 -58 47 -107 87
-110 90 -5 5 -95 79 -130 107 -8 7 -50 41 -93 76 -42 35 -104 85 -136 111
l-59 46 -50 -90 c-65 -116 -115 -221 -163 -341 -39 -99 -104 -305 -114 -361
-3 -17 -8 -34 -10 -38 -3 -5 -20 -94 -39 -210 -40 -236 -43 -687 -6 -930 6
-36 13 -83 16 -105 30 -204 128 -509 235 -731 55 -115 166 -307 181 -312 4 -2
8 -8 8 -13 0 -15 133 -193 209 -279 96 -110 257 -267 347 -339 43 -34 87 -69
96 -76 175 -142 511 -324 778 -423 115 -43 331 -107 420 -125 14 -2 59 -12
100 -20 41 -9 93 -18 115 -21 22 -3 74 -11 115 -16 132 -19 249 -25 490 -25
266 0 347 5 551 35 417 61 834 205 1158 399 46 28 86 51 87 51 10 0 277 191
294 210 3 3 32 28 65 55 58 49 195 183 265 261 192 211 405 558 514 836 53
136 126 380 142 478 2 14 7 41 10 60 3 19 8 46 10 60 2 14 6 39 9 55 5 32 10
75 20 190 7 76 7 416 0 480 -2 22 -7 67 -10 100 -15 135 -21 174 -46 295 -67
313 -208 663 -360 893 -22 32 -39 61 -39 65 0 4 -16 27 -35 51 -19 24 -35 47
-35 50 0 3 -10 18 -23 33 -12 14 -31 39 -42 54 -11 15 -24 32 -30 38 -5 6 -32
38 -60 71 -67 80 -243 254 -330 325 -214 174 -445 316 -710 437 -275 126 -653
226 -970 258 -33 4 -73 9 -90 12 -34 5 -570 14 -576 9z"/>
</g>
</svg>
