<svg width="22" height="20" viewBox="0 0 22 20" fill="none" xmlns="http://www.w3.org/2000/svg">
<path d="M21.8174 5.39315C21.6813 5.21169 21.4987 5.12097 21.2695 5.12097H6.68164L5.56445 1.55242C5.46419 1.22984 5.32812 0.954301 5.15625 0.725806C4.98437 0.497312 4.80176 0.336021 4.6084 0.241935C4.41504 0.147849 4.24674 0.0840054 4.10352 0.0504032C3.96029 0.0168011 3.81706 0 3.67383 0H0.730469C0.544271 0 0.386719 0.0604839 0.257812 0.181452C0.128906 0.302419 0.0644531 0.456989 0.0644531 0.645161C0.0644531 0.752688 0.093099 0.856855 0.150391 0.957661C0.207682 1.05847 0.290039 1.13575 0.397461 1.18952C0.504883 1.24328 0.615885 1.27016 0.730469 1.27016H3.67383C3.73112 1.27016 3.78483 1.27688 3.83496 1.29032C3.88509 1.30376 3.95312 1.36089 4.03906 1.46169C4.125 1.5625 4.19661 1.71371 4.25391 1.91532L8.05664 15.0202C8.08529 15.1008 8.13183 15.1781 8.19629 15.252C8.26074 15.3259 8.33594 15.3831 8.42187 15.4234C8.50781 15.4637 8.60091 15.4839 8.70117 15.4839H17.9824C18.1257 15.4839 18.2581 15.4435 18.3799 15.3629C18.5016 15.2823 18.584 15.1815 18.627 15.0605L21.9141 5.9879C21.9857 5.77285 21.9534 5.5746 21.8174 5.39315ZM17.5098 14.1935H9.23828L7.04687 6.41129H20.2812L17.5098 14.1935ZM16.1562 16.7742C15.6836 16.7742 15.279 16.9321 14.9424 17.248C14.6058 17.5638 14.4375 17.9435 14.4375 18.3871C14.4375 18.8306 14.6058 19.2103 14.9424 19.5262C15.279 19.8421 15.6836 20 16.1562 20C16.6289 20 17.0335 19.8421 17.3701 19.5262C17.7067 19.2103 17.875 18.8306 17.875 18.3871C17.875 17.9435 17.7067 17.5638 17.3701 17.248C17.0335 16.9321 16.6289 16.7742 16.1562 16.7742ZM9.96875 16.7742C9.65364 16.7742 9.36361 16.8481 9.09863 16.996C8.83366 17.1438 8.62598 17.3387 8.47558 17.5806C8.32519 17.8226 8.25 18.0914 8.25 18.3871C8.25 18.8306 8.41829 19.2103 8.75488 19.5262C9.09147 19.8421 9.49609 20 9.96875 20C10.4414 20 10.846 19.8421 11.1826 19.5262C11.5192 19.2103 11.6875 18.8306 11.6875 18.3871C11.6875 18.2796 11.6768 18.172 11.6553 18.0645C11.6338 17.957 11.6016 17.8562 11.5586 17.7621C11.5156 17.668 11.4619 17.5773 11.3975 17.4899C11.333 17.4026 11.2614 17.3219 11.1826 17.248C11.1038 17.1741 11.0179 17.1069 10.9248 17.0464C10.8317 16.9859 10.735 16.9355 10.6348 16.8952C10.5345 16.8548 10.4271 16.8246 10.3125 16.8044C10.1979 16.7843 10.0833 16.7742 9.96875 16.7742Z" fill="#000"/>
</svg>
