<?xml version="1.0" encoding="iso-8859-1"?>
<!-- Generator: Adobe Illustrator 19.0.0, SVG Export Plug-In . SVG Version: 6.00 Build 0)  -->
<svg version="1.1" id="Capa_1" xmlns="http://www.w3.org/2000/svg" xmlns:xlink="http://www.w3.org/1999/xlink" x="0px" y="0px"
	 viewBox="0 0 512 512" style="enable-background:new 0 0 512 512;" xml:space="preserve">
<g>
	<g>
		<path d="M416,213.333H96c-41.173,0-74.667,33.493-74.667,74.667v27.776c0,46.976,36.224,87.104,80.768,89.429
			c23.552,1.323,46.165-7.04,63.296-23.317c6.443-6.101,11.797-13.013,15.979-20.544c14.592,26.219,42.56,43.989,74.624,43.989
			s60.032-17.771,74.645-43.989c4.181,7.531,9.536,14.443,15.979,20.544c16,15.211,36.693,23.445,58.667,23.445
			c1.515,0,3.072-0.043,4.608-0.128c44.544-2.325,80.768-42.453,80.768-89.429V288C490.667,246.827,457.173,213.333,416,213.333z
			 M469.333,315.776c0,35.797-27.157,66.368-60.544,68.139c-17.771,0.981-34.645-5.291-47.509-17.472
			c-12.864-12.224-19.947-28.715-19.947-46.443c0-5.888-4.779-10.667-10.667-10.667S320,314.112,320,320c0,35.285-28.715,64-64,64
			s-64-28.715-64-64c0-5.888-4.779-10.667-10.667-10.667s-10.667,4.779-10.667,10.667c0,17.728-7.083,34.219-19.947,46.443
			c-12.864,12.181-29.803,18.347-47.509,17.472c-33.387-1.771-60.544-32.32-60.544-68.139V288c0-29.419,23.936-53.333,53.333-53.333
			h320c29.397,0,53.333,23.915,53.333,53.333V315.776z"/>
	</g>
</g>
<g>
	<g>
		<path d="M437.333,376.405c-5.888,0-10.667,4.779-10.667,10.667v71.595c0,17.643-14.357,32-32,32H117.333
			c-17.643,0-32-14.357-32-32v-71.573c0-5.888-4.779-10.667-10.667-10.667S64,381.205,64,387.093v71.573
			C64,488.085,87.936,512,117.333,512h277.333C424.064,512,448,488.085,448,458.667v-71.595
			C448,381.184,443.221,376.405,437.333,376.405z"/>
	</g>
</g>
<g>
	<g>
		<path d="M266.667,106.667h-21.333c-17.643,0-32,14.357-32,32V224c0,5.888,4.779,10.667,10.667,10.667h64
			c5.888,0,10.667-4.779,10.667-10.667v-85.333C298.667,121.024,284.309,106.667,266.667,106.667z M277.333,213.333h-42.667v-74.667
			c0-5.867,4.779-10.667,10.667-10.667h21.333c5.888,0,10.667,4.8,10.667,10.667V213.333z"/>
	</g>
</g>
<g>
	<g>
		<path d="M265.451,5.739c-1.835-3.52-5.461-5.717-9.429-5.739c-3.413,0.469-7.573,2.197-9.451,5.675
			c-7.787,14.699-33.237,63.893-33.237,79.659C213.333,108.864,232.469,128,256,128s42.667-19.136,42.667-42.667
			C298.667,70.933,275.435,24.875,265.451,5.739z M256,106.667c-11.755,0-21.333-9.557-21.333-21.312
			c0.128-5.739,9.941-28.288,21.269-51.179c11.243,22.891,21.099,45.419,21.397,51.2C277.312,97.131,267.755,106.667,256,106.667z"
			/>
	</g>
</g>
<g>
</g>
<g>
</g>
<g>
</g>
<g>
</g>
<g>
</g>
<g>
</g>
<g>
</g>
<g>
</g>
<g>
</g>
<g>
</g>
<g>
</g>
<g>
</g>
<g>
</g>
<g>
</g>
<g>
</g>
</svg>
