<?xml version="1.0" encoding="iso-8859-1"?>
<!-- Generator: Adobe Illustrator 19.0.0, SVG Export Plug-In . SVG Version: 6.00 Build 0)  -->
<svg version="1.1" id="Capa_1" xmlns="http://www.w3.org/2000/svg" xmlns:xlink="http://www.w3.org/1999/xlink" x="0px" y="0px"
	 viewBox="0 0 512 512" style="enable-background:new 0 0 512 512;" xml:space="preserve">
<circle style="fill:#FFB864;" cx="256" cy="256" r="256"/>
<path style="fill:#F4A651;" d="M355.817,471.565c-2.83,0-5.559-1.555-6.925-4.252c-1.937-3.821-0.41-8.49,3.412-10.426
	c21.986-11.144,42.075-27.279,59.711-47.954c6.317-7.407,12.317-15.434,17.832-23.857c2.348-3.585,7.154-4.589,10.74-2.24
	c3.584,2.347,4.588,7.155,2.24,10.74c-5.872,8.969-12.266,17.523-19.008,25.427c-18.973,22.246-40.673,39.647-64.5,51.724
	C358.194,471.294,356.997,471.565,355.817,471.565z"/>
<path id="SVGCleanerId_0" style="fill:#A5663C;" d="M418.647,161.652c-11.957,39.197-23.606,48.556-42.674,42.674
	c-22.521-6.948-49.333-22.309-42.674-42.674c7.324-22.401,16.787-47.543,42.674-42.674
	C402.183,123.908,425.524,139.109,418.647,161.652z"/>
<g>
	<path style="fill:#A5663C;" d="M156.379,392.997c-39.476,11.003-53.631,6.217-58.929-13.021
		c-6.257-22.722-7.729-53.588,13.021-58.929c22.824-5.874,49.109-11.42,58.929,13.021
		C179.343,358.816,179.082,386.669,156.379,392.997z"/>
	<path style="fill:#A5663C;" d="M399.871,377.306c-26.501,31.259-40.903,35.24-56.083,22.288
		c-17.929-15.297-36.467-40.02-22.288-56.083c15.596-17.67,34.241-37.009,56.083-22.288
		C399.698,336.128,415.112,359.329,399.871,377.306z"/>
	<path style="fill:#A5663C;" d="M137.457,161.172c-29.508-28.437-32.563-43.064-18.672-57.388
		c16.408-16.919,42.26-33.845,57.388-18.672c16.641,16.689,34.754,36.528,18.672,57.388
		C178.563,163.622,154.426,177.526,137.457,161.172z"/>
	<circle style="fill:#A5663C;" cx="242.905" cy="404.832" r="15.515"/>
	<circle style="fill:#A5663C;" cx="424.981" cy="271.474" r="15.515"/>
	<circle style="fill:#A5663C;" cx="309.01" cy="84.771" r="15.515"/>
</g>
<path style="fill:#F4A651;" d="M153.912,393.667c-37.59,10.113-51.277,5.139-56.461-13.692
	c-6.257-22.722-7.729-53.588,13.021-58.929c3.601-0.927,7.287-1.844,10.982-2.639c-5.005-19.976-7.677-40.879-7.677-62.408
	c0-34.99,7.028-68.334,19.736-98.714c-25.794-25.908-27.973-39.848-14.729-53.503c16.408-16.919,42.26-33.845,57.388-18.672
	c0.529,0.53,1.058,1.063,1.589,1.599c34.915-39.572,81.862-68.27,135.127-80.357C294.591,2.202,275.553,0,256,0
	C114.616,0,0,114.616,0,256s114.616,256,256,256c19.553,0,38.591-2.202,56.889-6.354
	C246.307,490.537,189.583,449.483,153.912,393.667z"/>
<circle style="fill:#89563A;" cx="72.683" cy="250.477" r="15.515"/>
<g>
	<path id="SVGCleanerId_0_1_" style="fill:#A5663C;" d="M418.647,161.652c-11.957,39.197-23.606,48.556-42.674,42.674
		c-22.521-6.948-49.333-22.309-42.674-42.674c7.324-22.401,16.787-47.543,42.674-42.674
		C402.183,123.908,425.524,139.109,418.647,161.652z"/>
</g>
<g>
	<path style="fill:#89563A;" d="M97.451,379.976c5.185,18.829,18.871,23.804,56.461,13.692
		c-14.613-22.865-25.682-48.21-32.458-75.258c-3.695,0.794-7.381,1.712-10.982,2.639C89.723,326.388,91.194,357.254,97.451,379.976z
		"/>
	<path style="fill:#89563A;" d="M118.785,103.783c-13.244,13.655-11.065,27.595,14.729,53.503
		c10.867-25.978,25.896-49.776,44.248-70.575c-0.531-0.537-1.06-1.07-1.589-1.599C161.045,69.939,135.193,86.864,118.785,103.783z"
		/>
</g>
<g>
	<path style="fill:#57565C;" d="M337.618,271.11c-4.285,0-7.758-3.472-7.758-7.758v-12.879c0-4.285,3.472-7.758,7.758-7.758
		c4.285,0,7.758,3.472,7.758,7.758v12.879C345.376,267.637,341.902,271.11,337.618,271.11z"/>
	<path style="fill:#57565C;" d="M170.765,271.11c-4.284,0-7.758-3.472-7.758-7.758v-12.879c0-4.285,3.473-7.758,7.758-7.758
		s7.758,3.472,7.758,7.758v12.879C178.523,267.637,175.049,271.11,170.765,271.11z"/>
	<path style="fill:#57565C;" d="M254.191,279.232c-10.04,0-20.081-3.249-28.458-9.747c-3.385-2.626-4.001-7.499-1.376-10.884
		c2.625-3.384,7.499-4.004,10.884-1.375c11.158,8.652,26.742,8.652,37.898,0c3.384-2.625,8.258-2.012,10.883,1.375
		c2.626,3.384,2.011,8.258-1.375,10.883C274.272,275.984,264.231,279.232,254.191,279.232z"/>
</g>
<g>
</g>
<g>
</g>
<g>
</g>
<g>
</g>
<g>
</g>
<g>
</g>
<g>
</g>
<g>
</g>
<g>
</g>
<g>
</g>
<g>
</g>
<g>
</g>
<g>
</g>
<g>
</g>
<g>
</g>
</svg>
