<svg width="859" height="576" viewBox="0 0 859 576" fill="none" xmlns="http://www.w3.org/2000/svg">
<g clip-path="url(#clip0_525_350)">
<path opacity="0.48" d="M813.146 21.3308H202.522C193.96 21.3308 187.019 28.2742 187.019 36.8393V416.929C187.019 425.494 193.96 432.438 202.522 432.438H813.146C821.709 432.438 828.65 425.494 828.65 416.929V36.8393C828.65 28.2742 821.709 21.3308 813.146 21.3308Z" fill="#EB00E1"/>
<path opacity="0.18" d="M815.953 462.45C815.485 475.913 812.402 489.62 804.866 500.779C795.373 514.832 779.956 523.531 765.024 531.71L722.688 555.016C704.135 565.239 684.578 575.705 663.427 576C648.46 576.225 633.978 571.287 619.583 567.145C552.354 547.738 481.539 545.018 412.04 549.921C376.442 552.434 341.017 556.853 305.748 562.172C277.53 566.366 243.664 580.315 218.217 563.801C190.501 545.78 173.49 516.6 157.83 488.268C144.197 463.68 130.374 438.485 125.87 410.743C118.941 367.873 135.536 323.843 161.502 289.014C169.312 278.612 177.838 268.769 187.019 259.556V416.946C187.019 421.067 188.649 425.021 191.554 427.943C194.459 430.865 198.403 432.519 202.523 432.541H813.129C815.303 442.356 816.251 452.402 815.953 462.45Z" fill="#EB00E1"/>
<path opacity="0.18" d="M587.813 21.3481H424.547C430.692 16.6743 437.367 12.7425 444.433 9.63437C457.339 4.00277 471.405 1.49021 485.436 0.485183C520.74 -2.06203 556.147 5.73557 587.813 21.3481Z" fill="#EB00E1"/>
<path d="M438.422 380.696C440.013 382.806 441.925 384.653 444.087 386.172C447.301 387.906 450.84 388.956 454.48 389.256L509.774 397.591C510.324 397.629 510.855 397.808 511.316 398.111C511.623 398.444 511.854 398.839 511.995 399.27C512.135 399.7 512.182 400.156 512.13 400.606C512.387 410.962 510.989 421.292 507.99 431.207C507.833 432.018 507.441 432.765 506.864 433.356C506.118 433.861 505.236 434.127 504.335 434.118C485.73 435.695 467.039 435.193 448.383 434.69C445.246 434.734 442.116 434.391 439.063 433.668C433.866 432.212 429.622 428.66 425.707 425.004C417.306 417.189 383.302 385.773 381.24 381.511C378.506 375.404 376.304 369.073 374.657 362.588C372.925 356.35 385.588 355.571 385.328 349.09C385.146 344.609 385.684 340.127 386.922 335.817C387.844 331.972 389.755 328.436 392.465 325.558C394.371 323.826 391.426 312.077 394.059 311.939C397.108 322.335 410.897 343.129 416.89 352.036C423.552 361.966 430.739 371.533 438.422 380.696Z" fill="#EB00E1"/>
<path d="M438.422 380.696C440.013 382.806 441.925 384.653 444.087 386.172C447.301 387.906 450.84 388.956 454.48 389.256L509.774 397.591C510.324 397.629 510.855 397.808 511.316 398.111C511.623 398.444 511.854 398.839 511.995 399.27C512.135 399.7 512.182 400.156 512.13 400.606C512.387 410.962 510.989 421.292 507.99 431.207C507.833 432.018 507.441 432.765 506.864 433.356C506.118 433.861 505.236 434.127 504.335 434.118C485.73 435.695 467.039 435.193 448.383 434.69C445.246 434.734 442.116 434.391 439.063 433.668C433.866 432.212 429.622 428.66 425.707 425.004C417.306 417.189 383.302 385.773 381.24 381.511C378.506 375.404 376.304 369.073 374.657 362.588C372.925 356.35 385.588 355.571 385.328 349.09C385.146 344.609 385.684 340.127 386.922 335.817C387.844 331.972 389.755 328.436 392.465 325.558C394.371 323.826 391.426 312.077 394.059 311.939C397.108 322.335 410.897 343.129 416.89 352.036C423.552 361.966 430.739 371.533 438.422 380.696Z" fill="url(#paint0_linear_525_350)"/>
<path d="M298.507 292.913C294.783 296.233 291.309 299.824 288.114 303.656C280.457 313.065 275.364 324.259 270.618 335.418C257.99 365.118 246.99 396.88 250.264 428.989C250.326 430.921 250.848 432.811 251.788 434.5C253.279 436.411 255.373 437.761 257.73 438.329C263.81 440.27 270.306 440.356 276.785 440.408C301.747 440.634 326.743 440.859 351.688 439.646C355.551 439.455 359.639 439.161 362.844 436.977C365.184 435.185 367.052 432.847 368.283 430.168C374.987 417.553 376.944 402.963 382.141 389.689C389.07 372.361 408.125 356.61 404.106 338.346C386.922 260.804 306.372 285.756 298.507 292.913Z" fill="#EB00E1"/>
<path d="M298.507 292.913C294.783 296.233 291.309 299.824 288.114 303.656C280.457 313.065 275.364 324.259 270.618 335.418C257.99 365.118 246.99 396.88 250.264 428.989C250.326 430.921 250.848 432.811 251.788 434.5C253.279 436.411 255.373 437.761 257.73 438.329C263.81 440.27 270.306 440.356 276.785 440.408C301.747 440.634 326.743 440.859 351.688 439.646C355.551 439.455 359.639 439.161 362.844 436.977C365.184 435.185 367.052 432.847 368.283 430.168C374.987 417.553 376.944 402.963 382.141 389.689C389.07 372.361 408.125 356.61 404.106 338.346C386.922 260.804 306.372 285.756 298.507 292.913Z" fill="url(#paint1_linear_525_350)"/>
<path d="M411.313 228.678C408.385 242.904 405.319 257.511 397.454 269.762C394.587 274.709 390.44 278.791 385.45 281.58C380.374 284.127 373.93 284.474 369.184 281.355C366.811 279.813 364.212 277.387 361.631 278.53C359.76 279.379 359.154 281.701 358.894 283.729C358.244 288.709 358.314 293.757 359.102 298.717C359.423 300.114 359.505 301.556 359.345 302.98C359.009 304.298 358.299 305.491 357.299 306.413C356.3 307.336 355.055 307.949 353.715 308.178C351.035 308.57 348.299 308.141 345.868 306.948C342.085 305.256 338.774 302.662 336.225 299.393C333.677 296.125 331.967 292.281 331.247 288.199C330.884 285.442 330.71 282.663 330.728 279.882C330.398 267.544 328.441 255.259 328.839 242.939C329.238 230.618 332.304 217.796 340.671 208.698C345.503 203.745 351.243 199.768 357.578 196.985C367.019 192.479 377.551 189.308 387.875 190.955C391.983 191.604 395.903 193.136 399.362 195.445C402.822 197.754 405.741 200.786 407.917 204.332C413.322 212.632 413.339 218.818 411.313 228.678Z" fill="#FFDAD2"/>
<path d="M437.106 197.331C437.809 191.549 436.736 185.689 434.028 180.532C431.321 175.375 427.107 171.165 421.949 168.463C417.358 166.176 412.248 165.205 407.294 163.888C395.687 160.769 384.549 155.605 372.648 154.496C360.748 153.387 347.063 157.564 341.762 168.359C340.792 170.334 339.839 172.726 337.709 173.245C336.544 173.371 335.367 173.265 334.244 172.933C326.293 171.53 319.139 178.322 315.553 185.548C309.767 197.245 309.473 210.882 310.737 223.86C311.898 235.869 314.964 248.847 324.595 256.16C325.548 256.888 326.951 257.546 327.869 256.766C328.29 256.327 328.552 255.76 328.614 255.155C329.583 250.602 329.944 245.94 329.688 241.292C329.498 237.827 328.943 234.153 329.844 230.74C330.745 227.326 333.638 224.086 337.172 224.19C340.446 224.19 343.079 227.239 343.893 230.428C344.473 233.674 344.349 237.007 343.529 240.201C344.049 241.5 345.867 239.941 346.179 238.589C348.57 227.707 349.107 215.526 356.66 207.399C358.196 208.99 359.315 210.936 359.916 213.065C361.045 211.895 362.481 211.067 364.058 210.675C365.636 210.282 367.292 210.342 368.837 210.847C371.029 211.801 373.044 213.12 374.796 214.746C393.193 229.111 433.243 224.848 437.106 197.331Z" fill="#3F3D56"/>
<path d="M303.808 310.656C297.988 314.884 295.147 322.318 294.974 329.492C294.8 336.666 302.388 382.186 309.542 395.113C315.085 405.163 326.639 431.398 344.187 438.641C349.384 440.79 426.21 439.889 461.86 436.024C461.635 427.586 461.219 419.147 460.665 410.708C460.717 409.595 460.38 408.498 459.712 407.606C458.811 406.671 457.529 400.554 456.248 400.554C435.46 400.641 414.5 407 393.713 407.485C390.694 407.68 387.662 407.5 384.688 406.948C382.253 406.34 379.919 405.383 377.759 404.106C361.718 395.026 352.849 377.196 346.578 359.851C341.779 346.473 337.916 332.628 330.987 320.135C328.528 315.681 326.328 311.349 321.477 309.391C315.778 307.087 309.092 306.827 303.808 310.656Z" fill="#EB00E1"/>
<path d="M303.808 310.656C297.988 314.884 295.147 322.318 294.974 329.492C294.8 336.666 302.388 382.186 309.542 395.113C315.085 405.163 326.639 431.398 344.187 438.641C349.384 440.79 426.21 439.889 461.86 436.024C461.635 427.586 461.219 419.147 460.665 410.708C460.717 409.595 460.38 408.498 459.712 407.606C458.811 406.671 457.529 400.554 456.248 400.554C435.46 400.641 414.5 407 393.713 407.485C390.694 407.68 387.662 407.5 384.688 406.948C382.253 406.34 379.919 405.383 377.759 404.106C361.718 395.026 352.849 377.196 346.578 359.851C341.779 346.473 337.916 332.628 330.987 320.135C328.528 315.681 326.328 311.349 321.477 309.391C315.778 307.087 309.092 306.827 303.808 310.656Z" fill="url(#paint2_linear_525_350)"/>
<path d="M458.811 398.925C469.603 397.903 481.591 400.311 488.433 408.715C489.154 409.482 489.625 410.448 489.784 411.488C489.777 412.424 489.487 413.336 488.953 414.104C484.917 420.81 476.151 422.405 468.789 425.056C464.96 426.428 461.303 428.243 457.893 430.462C455.974 431.985 453.754 433.084 451.38 433.685C446.183 434.465 441.87 429.821 439.514 425.177C436.812 419.979 432.585 409.305 437.782 404.383C442.026 400.485 453.476 399.41 458.811 398.925Z" fill="#FFDAD2"/>
<path d="M548.179 396.257C550.1 397.349 551.752 398.859 553.012 400.675C553.627 401.594 553.992 402.657 554.071 403.761C554.15 404.864 553.94 405.968 553.462 406.965C552.645 408.193 551.531 409.195 550.223 409.876C540.644 415.577 528.899 416.6 519.198 422.006C517.208 423.453 514.926 424.447 512.512 424.917C511.093 424.948 509.686 424.652 508.4 424.051C507.114 423.45 505.984 422.56 505.097 421.452C503.331 419.245 501.975 416.739 501.096 414.053C489.75 384.248 531.861 385.86 548.179 396.257Z" fill="#FFDAD2"/>
<path d="M273.667 382.949H318.55V419.823C318.55 423.269 317.181 426.575 314.744 429.012C312.308 431.45 309.003 432.819 305.558 432.819H286.659C283.213 432.819 279.908 431.45 277.472 429.012C275.035 426.575 273.667 423.269 273.667 419.823V382.949Z" fill="white"/>
<path d="M315.518 391.89H329.116C331.988 391.89 334.742 393.031 336.772 395.062C338.802 397.093 339.943 399.848 339.943 402.72V407.208C339.943 410.08 338.802 412.835 336.772 414.866C334.742 416.897 331.988 418.038 329.116 418.038H315.518V391.89Z" stroke="white" stroke-width="3.03781" stroke-miterlimit="10"/>
<path d="M820.075 432.022H212.085C206.765 432.022 202.453 436.331 202.453 441.647C202.453 446.964 206.765 451.273 212.085 451.273H820.075C825.395 451.273 829.707 446.964 829.707 441.647C829.707 436.331 825.395 432.022 820.075 432.022Z" fill="#EB00E1"/>
<path d="M708.309 451.568H364.645V570.802H708.309V451.568Z" fill="#EB00E1"/>
<path d="M366.984 451.568H231.988V570.802H366.984V451.568Z" fill="#EB00E1"/>
<path d="M708.327 451.568H366.915V570.802H708.327V451.568Z" fill="url(#paint3_linear_525_350)"/>
<path d="M366.984 451.568H231.988V570.802H366.984V451.568Z" fill="url(#paint4_linear_525_350)"/>
<path opacity="0.18" d="M828.633 36.8566V112.753H187.019V36.8566C187.018 32.7355 188.649 28.7819 191.554 25.8597C194.459 22.9375 198.403 21.2843 202.522 21.2614H813.129C817.249 21.2843 821.192 22.9375 824.097 25.8597C827.002 28.7819 828.633 32.7355 828.633 36.8566Z" fill="#EB00E1"/>
<path d="M463.956 431.692L686.448 431.692C692.686 431.692 697.743 426.634 697.743 420.395C697.743 414.155 692.686 409.097 686.448 409.097H463.956C457.718 409.097 452.662 414.155 452.662 420.395C452.662 426.634 457.718 431.692 463.956 431.692Z" fill="#EB00E1"/>
<path d="M463.956 431.692L686.448 431.692C692.686 431.692 697.743 426.634 697.743 420.395C697.743 414.155 692.686 409.097 686.448 409.097H463.956C457.718 409.097 452.662 414.155 452.662 420.395C452.662 426.634 457.718 431.692 463.956 431.692Z" fill="url(#paint5_linear_525_350)"/>
<path d="M541.111 431.727H711.861L756.9 317.484C757.497 315.961 757.715 314.316 757.532 312.69C757.35 311.064 756.774 309.508 755.854 308.156C754.934 306.803 753.698 305.696 752.253 304.93C750.808 304.164 749.198 303.762 747.563 303.76H613.572C607.09 303.772 600.762 305.731 595.406 309.383C590.051 313.034 585.915 318.211 583.535 324.242L541.111 431.727Z" fill="#EB00E1"/>
<path d="M549.79 431.848H711.965L754.734 323.323C755.305 321.877 755.514 320.314 755.342 318.769C755.17 317.224 754.623 315.744 753.748 314.459C752.874 313.174 751.698 312.123 750.324 311.397C748.95 310.67 747.419 310.291 745.865 310.292H618.613C612.448 310.29 606.426 312.142 601.328 315.61C596.231 319.077 592.294 323.999 590.031 329.735L549.79 431.848Z" fill="#EB00E1"/>
<path d="M549.79 431.848H711.965L754.734 323.323C755.305 321.877 755.514 320.314 755.342 318.769C755.17 317.224 754.623 315.744 753.748 314.459C752.874 313.174 751.698 312.123 750.324 311.397C748.95 310.67 747.419 310.291 745.865 310.292H618.613C612.448 310.29 606.426 312.142 601.328 315.61C596.231 319.077 592.294 323.999 590.031 329.735L549.79 431.848Z" fill="url(#paint6_linear_525_350)"/>
<path opacity="0.51" d="M733.393 267.908H493.301V281.424H733.393V267.908Z" fill="white"/>
<path d="M663.981 244.775H493.301V258.291H663.981V244.775Z" fill="white"/>
<path d="M801.575 244.775H687.314V258.291H801.575V244.775Z" fill="white"/>
<path d="M801.176 159.21H625.507V171.218H801.176V159.21Z" fill="white"/>
<path opacity="0.51" d="M776.647 180.54H588.714V192.549H776.647V180.54Z" fill="white"/>
<path d="M612.099 159.21H496.557V171.218H612.099V159.21Z" fill="white"/>
<path d="M801.177 201.23H547.244V213.238H801.177V201.23Z" fill="white"/>
<path opacity="0.51" d="M533.835 201.23H496.557V213.238H533.835V201.23Z" fill="white"/>
<path opacity="0.51" d="M801.176 222.561H633.562V234.569H801.176V222.561Z" fill="white"/>
<path d="M612.099 222.561H496.557V234.569H612.099V222.561Z" fill="white"/>
<path d="M570.854 180.038H496.557V192.046H570.854V180.038Z" fill="white"/>
<path d="M736.926 118.783H561.257V130.792H736.926V118.783Z" fill="white"/>
<path opacity="0.51" d="M712.397 140.114H524.464V152.122H712.397V140.114Z" fill="white"/>
<path d="M547.867 118.783H432.325V130.792H547.867V118.783Z" fill="white"/>
<path d="M735.367 93.9177H559.698V105.926H735.367V93.9177Z" fill="white"/>
<path d="M546.308 71.3567H430.766V83.365H546.308V71.3567Z" fill="white"/>
<path d="M546.308 50.771H430.766V62.7793H546.308V50.771Z" fill="white"/>
<path d="M506.622 139.612H432.325V151.62H506.622V139.612Z" fill="white"/>
</g>
<rect x="2.5" y="69.5" width="317" height="60" fill="#F796F3" stroke="white" stroke-width="5"/>
<path d="M95.8047 115H93.5078V80.7344H105.977V82.9375H95.8047V97.4688H105.414V99.6953H95.8047V115ZM117.32 89.0781C118.117 89.0781 118.859 89.1875 119.547 89.4062L119.008 91.6328C118.445 91.3984 117.867 91.2812 117.273 91.2812C116.414 91.2812 115.609 91.7266 114.859 92.6172C114.125 93.4922 113.547 94.7188 113.125 96.2969C112.703 97.875 112.492 99.6172 112.492 101.523V115H110.266V89.5703H112.094L112.328 94.0234H112.492C113.68 90.7266 115.289 89.0781 117.32 89.0781ZM130.609 115.469C127.922 115.469 125.852 114.328 124.398 112.047C122.961 109.75 122.242 106.555 122.242 102.461C122.242 98.1172 122.883 94.8047 124.164 92.5234C125.461 90.2266 127.32 89.0781 129.742 89.0781C131.852 89.0781 133.516 90.0859 134.734 92.1016C135.953 94.1016 136.562 96.8047 136.562 100.211V102.273H124.516C124.547 105.977 125.07 108.75 126.086 110.594C127.102 112.438 128.641 113.359 130.703 113.359C132.297 113.359 133.977 112.836 135.742 111.789V113.945C134.117 114.961 132.406 115.469 130.609 115.469ZM129.602 91.0938C126.539 91.0938 124.859 94.1484 124.562 100.258H134.336C134.336 97.4609 133.906 95.2344 133.047 93.5781C132.203 91.9219 131.055 91.0938 129.602 91.0938ZM149.453 115.469C146.766 115.469 144.695 114.328 143.242 112.047C141.805 109.75 141.086 106.555 141.086 102.461C141.086 98.1172 141.727 94.8047 143.008 92.5234C144.305 90.2266 146.164 89.0781 148.586 89.0781C150.695 89.0781 152.359 90.0859 153.578 92.1016C154.797 94.1016 155.406 96.8047 155.406 100.211V102.273H143.359C143.391 105.977 143.914 108.75 144.93 110.594C145.945 112.438 147.484 113.359 149.547 113.359C151.141 113.359 152.82 112.836 154.586 111.789V113.945C152.961 114.961 151.25 115.469 149.453 115.469ZM148.445 91.0938C145.383 91.0938 143.703 94.1484 143.406 100.258H153.18C153.18 97.4609 152.75 95.2344 151.891 93.5781C151.047 91.9219 149.898 91.0938 148.445 91.0938ZM163.305 115H161.078V78.5312H163.305V115ZM179.969 115L179.688 111.438H179.594C178.375 114.125 176.531 115.469 174.062 115.469C172.406 115.469 171.07 114.812 170.055 113.5C169.055 112.172 168.555 110.398 168.555 108.18C168.555 105.758 169.281 103.844 170.734 102.438C172.188 101.016 174.227 100.242 176.852 100.117L179.594 99.9766V97.8672C179.594 95.4922 179.297 93.7656 178.703 92.6875C178.109 91.5938 177.125 91.0469 175.75 91.0469C174.297 91.0469 172.812 91.5234 171.297 92.4766L170.336 90.7188C172.102 89.625 173.953 89.0781 175.891 89.0781C177.984 89.0781 179.492 89.7422 180.414 91.0703C181.336 92.3828 181.797 94.5859 181.797 97.6797V115H179.969ZM174.555 113.57C176.148 113.57 177.383 112.789 178.258 111.227C179.148 109.648 179.594 107.422 179.594 104.547V101.898L176.945 102.039C174.898 102.148 173.375 102.719 172.375 103.75C171.391 104.766 170.898 106.258 170.898 108.227C170.898 110.07 171.227 111.422 171.883 112.281C172.539 113.141 173.43 113.57 174.555 113.57ZM199.984 115V97.4688C199.984 93.25 198.734 91.1406 196.234 91.1406C194.328 91.1406 192.93 91.9297 192.039 93.5078C191.164 95.0859 190.727 97.5938 190.727 101.031V115H188.5V89.5703H190.375L190.562 93.1094H190.773C191.305 91.8281 192.07 90.8359 193.07 90.1328C194.07 89.4297 195.141 89.0781 196.281 89.0781C198.25 89.0781 199.727 89.7422 200.711 91.0703C201.695 92.3828 202.188 94.5 202.188 97.4219V115H199.984ZM215.43 115.469C212.883 115.469 210.961 114.367 209.664 112.164C208.383 109.945 207.742 106.695 207.742 102.414C207.742 98.0703 208.391 94.7656 209.688 92.5C211 90.2188 212.93 89.0781 215.477 89.0781C217.055 89.0781 218.367 89.3672 219.414 89.9453L218.547 91.9141C217.5 91.4297 216.539 91.1875 215.664 91.1875C211.93 91.1875 210.062 94.9141 210.062 102.367C210.062 109.758 211.93 113.453 215.664 113.453C216.773 113.453 217.977 113.203 219.273 112.703V114.578C218.758 114.859 218.125 115.078 217.375 115.234C216.625 115.391 215.977 115.469 215.43 115.469ZM231.016 115.469C228.328 115.469 226.258 114.328 224.805 112.047C223.367 109.75 222.648 106.555 222.648 102.461C222.648 98.1172 223.289 94.8047 224.57 92.5234C225.867 90.2266 227.727 89.0781 230.148 89.0781C232.258 89.0781 233.922 90.0859 235.141 92.1016C236.359 94.1016 236.969 96.8047 236.969 100.211V102.273H224.922C224.953 105.977 225.477 108.75 226.492 110.594C227.508 112.438 229.047 113.359 231.109 113.359C232.703 113.359 234.383 112.836 236.148 111.789V113.945C234.523 114.961 232.812 115.469 231.016 115.469ZM230.008 91.0938C226.945 91.0938 225.266 94.1484 224.969 100.258H234.742C234.742 97.4609 234.312 95.2344 233.453 93.5781C232.609 91.9219 231.461 91.0938 230.008 91.0938Z" fill="white"/>
<defs>
<linearGradient id="paint0_linear_525_350" x1="383.353" y1="360.162" x2="470.407" y2="393.328" gradientUnits="userSpaceOnUse">
<stop offset="0.01"/>
<stop offset="0.12" stop-opacity="0.75"/>
<stop offset="1" stop-opacity="0"/>
</linearGradient>
<linearGradient id="paint1_linear_525_350" x1="20229.4" y1="43684" x2="17799.1" y2="29236.2" gradientUnits="userSpaceOnUse">
<stop offset="0.01"/>
<stop offset="0.12" stop-opacity="0.75"/>
<stop offset="1" stop-opacity="0"/>
</linearGradient>
<linearGradient id="paint2_linear_525_350" x1="22718.2" y1="36091.3" x2="25516.2" y2="28135" gradientUnits="userSpaceOnUse">
<stop offset="0.01"/>
<stop offset="0.12" stop-opacity="0.75"/>
<stop offset="1" stop-opacity="0"/>
</linearGradient>
<linearGradient id="paint3_linear_525_350" x1="90151.5" y1="25860.3" x2="88220.5" y2="44438.4" gradientUnits="userSpaceOnUse">
<stop offset="0.01"/>
<stop offset="0.12" stop-opacity="0.75"/>
<stop offset="1" stop-opacity="0"/>
</linearGradient>
<linearGradient id="paint4_linear_525_350" x1="11748.5" y1="26678.3" x2="16183.6" y2="50491.6" gradientUnits="userSpaceOnUse">
<stop offset="0.01"/>
<stop offset="0.12" stop-opacity="0.75"/>
<stop offset="1" stop-opacity="0"/>
</linearGradient>
<linearGradient id="paint5_linear_525_350" x1="65379.5" y1="6466.1" x2="65380.8" y2="5850.76" gradientUnits="userSpaceOnUse">
<stop offset="0.01"/>
<stop offset="0.12" stop-opacity="0.75"/>
<stop offset="1" stop-opacity="0"/>
</linearGradient>
<linearGradient id="paint6_linear_525_350" x1="63814" y1="34937.9" x2="64104.6" y2="22491.4" gradientUnits="userSpaceOnUse">
<stop offset="0.01"/>
<stop offset="0.12" stop-opacity="0.75"/>
<stop offset="1" stop-opacity="0"/>
</linearGradient>
<clipPath id="clip0_525_350">
<rect width="764" height="576" fill="white" transform="translate(95)"/>
</clipPath>
</defs>
</svg>
