<svg width="859" height="576" viewBox="0 0 859 576" fill="none" xmlns="http://www.w3.org/2000/svg">
<g clip-path="url(#clip0_525_350)">
<path opacity="0.48" d="M813.146 21.3308H202.522C193.96 21.3308 187.019 28.2742 187.019 36.8393V416.929C187.019 425.494 193.96 432.438 202.522 432.438H813.146C821.709 432.438 828.65 425.494 828.65 416.929V36.8393C828.65 28.2742 821.709 21.3308 813.146 21.3308Z" fill="#EB00E1"/>
<path opacity="0.18" d="M815.953 462.45C815.485 475.913 812.402 489.62 804.866 500.779C795.373 514.832 779.956 523.531 765.024 531.71L722.688 555.016C704.135 565.239 684.578 575.705 663.427 576C648.46 576.225 633.978 571.287 619.583 567.145C552.354 547.738 481.539 545.018 412.04 549.921C376.442 552.434 341.017 556.853 305.748 562.172C277.53 566.366 243.664 580.315 218.217 563.801C190.501 545.78 173.49 516.6 157.83 488.268C144.197 463.68 130.374 438.485 125.87 410.743C118.941 367.873 135.536 323.843 161.502 289.014C169.312 278.612 177.838 268.769 187.019 259.556V416.946C187.019 421.067 188.649 425.021 191.554 427.943C194.459 430.865 198.403 432.519 202.523 432.541H813.129C815.303 442.356 816.251 452.402 815.953 462.45V462.45Z" fill="#EB00E1"/>
<path opacity="0.18" d="M587.813 21.3481H424.547C430.692 16.6743 437.367 12.7425 444.433 9.63436C457.339 4.00277 471.405 1.49021 485.436 0.485183C520.74 -2.06203 556.147 5.73557 587.813 21.3481Z" fill="#EB00E1"/>
<path d="M438.422 380.696C440.013 382.806 441.925 384.653 444.087 386.172C447.301 387.906 450.84 388.956 454.48 389.256L509.774 397.591C510.324 397.629 510.855 397.808 511.316 398.111C511.623 398.444 511.854 398.839 511.995 399.27C512.135 399.7 512.182 400.156 512.13 400.606C512.387 410.962 510.989 421.292 507.99 431.207C507.833 432.018 507.441 432.765 506.864 433.356C506.118 433.861 505.236 434.127 504.335 434.118C485.73 435.695 467.039 435.193 448.383 434.69C445.246 434.734 442.116 434.391 439.063 433.668C433.866 432.212 429.622 428.66 425.707 425.004C417.306 417.189 383.302 385.773 381.24 381.511C378.506 375.404 376.304 369.073 374.657 362.588C372.925 356.35 385.588 355.571 385.328 349.09C385.146 344.609 385.684 340.127 386.922 335.817C387.844 331.972 389.755 328.436 392.465 325.558C394.371 323.826 391.426 312.077 394.059 311.939C397.108 322.335 410.897 343.129 416.89 352.036C423.552 361.966 430.739 371.533 438.422 380.696V380.696Z" fill="#EB00E1"/>
<path d="M438.422 380.696C440.013 382.806 441.925 384.653 444.087 386.172C447.301 387.906 450.84 388.956 454.48 389.256L509.774 397.591C510.324 397.629 510.855 397.808 511.316 398.111C511.623 398.444 511.854 398.839 511.995 399.27C512.135 399.7 512.182 400.156 512.13 400.606C512.387 410.962 510.989 421.292 507.99 431.207C507.833 432.018 507.441 432.765 506.864 433.356C506.118 433.861 505.236 434.127 504.335 434.118C485.73 435.695 467.039 435.193 448.383 434.69C445.246 434.734 442.116 434.391 439.063 433.668C433.866 432.212 429.622 428.66 425.707 425.004C417.306 417.189 383.302 385.773 381.24 381.511C378.506 375.404 376.304 369.073 374.657 362.588C372.925 356.35 385.588 355.571 385.328 349.09C385.146 344.609 385.684 340.127 386.922 335.817C387.844 331.972 389.755 328.436 392.465 325.558C394.371 323.826 391.426 312.077 394.059 311.939C397.108 322.335 410.897 343.129 416.89 352.036C423.552 361.966 430.739 371.533 438.422 380.696V380.696Z" fill="url(#paint0_linear_525_350)"/>
<path d="M298.507 292.913C294.783 296.233 291.309 299.824 288.114 303.656C280.457 313.065 275.364 324.259 270.618 335.418C257.99 365.118 246.99 396.88 250.264 428.989C250.326 430.921 250.848 432.811 251.788 434.5C253.279 436.411 255.373 437.761 257.73 438.329C263.81 440.27 270.306 440.356 276.785 440.408C301.747 440.634 326.743 440.859 351.688 439.646C355.551 439.455 359.639 439.161 362.844 436.977C365.184 435.185 367.052 432.847 368.283 430.168C374.987 417.553 376.944 402.963 382.141 389.689C389.07 372.361 408.125 356.61 404.106 338.346C386.922 260.804 306.372 285.756 298.507 292.913Z" fill="#EB00E1"/>
<path d="M298.507 292.913C294.783 296.233 291.309 299.824 288.114 303.656C280.457 313.065 275.364 324.259 270.618 335.418C257.99 365.118 246.99 396.88 250.264 428.989C250.326 430.921 250.848 432.811 251.788 434.5C253.279 436.411 255.373 437.761 257.73 438.329C263.81 440.27 270.306 440.356 276.785 440.408C301.747 440.634 326.743 440.859 351.688 439.646C355.551 439.455 359.639 439.161 362.844 436.977C365.184 435.185 367.052 432.847 368.283 430.168C374.987 417.553 376.944 402.963 382.141 389.689C389.07 372.361 408.125 356.61 404.106 338.346C386.922 260.804 306.372 285.756 298.507 292.913Z" fill="url(#paint1_linear_525_350)"/>
<path d="M411.313 228.678C408.385 242.904 405.319 257.511 397.454 269.762C394.587 274.709 390.44 278.791 385.45 281.58C380.374 284.127 373.93 284.474 369.184 281.355C366.811 279.813 364.212 277.387 361.631 278.53C359.76 279.379 359.154 281.701 358.894 283.729C358.244 288.709 358.314 293.757 359.102 298.717C359.423 300.114 359.505 301.556 359.345 302.98C359.009 304.298 358.299 305.491 357.299 306.413C356.3 307.336 355.055 307.949 353.715 308.178C351.035 308.57 348.299 308.141 345.868 306.948C342.085 305.256 338.774 302.662 336.225 299.393C333.677 296.125 331.967 292.281 331.247 288.199C330.884 285.442 330.71 282.663 330.728 279.882C330.398 267.544 328.441 255.259 328.839 242.939C329.238 230.618 332.304 217.796 340.671 208.698C345.503 203.745 351.243 199.768 357.578 196.985C367.019 192.479 377.551 189.308 387.875 190.955C391.983 191.604 395.903 193.136 399.362 195.445C402.822 197.754 405.741 200.786 407.917 204.332C413.322 212.632 413.339 218.818 411.313 228.678Z" fill="#FFDAD2"/>
<path d="M437.106 197.331C437.809 191.549 436.736 185.689 434.028 180.532C431.321 175.375 427.107 171.165 421.949 168.463C417.358 166.176 412.248 165.205 407.294 163.888C395.687 160.769 384.549 155.605 372.648 154.496C360.748 153.387 347.063 157.564 341.762 168.359C340.792 170.334 339.839 172.726 337.709 173.245C336.544 173.371 335.367 173.265 334.244 172.933C326.293 171.53 319.139 178.322 315.553 185.548C309.767 197.245 309.473 210.882 310.737 223.86C311.898 235.869 314.964 248.847 324.595 256.16C325.548 256.888 326.951 257.546 327.869 256.766C328.29 256.327 328.552 255.76 328.614 255.155C329.583 250.602 329.944 245.94 329.688 241.292C329.498 237.827 328.943 234.153 329.844 230.74C330.745 227.326 333.638 224.086 337.172 224.19C340.446 224.19 343.079 227.239 343.893 230.428C344.473 233.674 344.349 237.007 343.529 240.201C344.049 241.5 345.867 239.941 346.179 238.589C348.57 227.707 349.107 215.526 356.66 207.399C358.196 208.99 359.315 210.936 359.916 213.065C361.045 211.895 362.481 211.067 364.058 210.675C365.636 210.282 367.292 210.342 368.837 210.847C371.029 211.801 373.044 213.12 374.796 214.746C393.193 229.111 433.243 224.848 437.106 197.331Z" fill="#3F3D56"/>
<path d="M303.808 310.656C297.988 314.884 295.147 322.318 294.974 329.492C294.8 336.666 302.388 382.186 309.542 395.113C315.085 405.163 326.639 431.398 344.187 438.641C349.384 440.79 426.21 439.889 461.86 436.024C461.635 427.586 461.219 419.147 460.665 410.708C460.717 409.595 460.38 408.498 459.712 407.606C458.811 406.671 457.529 400.554 456.248 400.554C435.46 400.641 414.5 407 393.713 407.485C390.694 407.68 387.662 407.5 384.688 406.948C382.253 406.34 379.919 405.383 377.759 404.106C361.718 395.026 352.849 377.196 346.578 359.851C341.779 346.473 337.916 332.628 330.987 320.135C328.528 315.681 326.328 311.349 321.477 309.391C315.778 307.087 309.092 306.827 303.808 310.656Z" fill="#EB00E1"/>
<path d="M303.808 310.656C297.988 314.884 295.147 322.318 294.974 329.492C294.8 336.666 302.388 382.186 309.542 395.113C315.085 405.163 326.639 431.398 344.187 438.641C349.384 440.79 426.21 439.889 461.86 436.024C461.635 427.586 461.219 419.147 460.665 410.708C460.717 409.595 460.38 408.498 459.712 407.606C458.811 406.671 457.529 400.554 456.248 400.554C435.46 400.641 414.5 407 393.713 407.485C390.694 407.68 387.662 407.5 384.688 406.948C382.253 406.34 379.919 405.383 377.759 404.106C361.718 395.026 352.849 377.196 346.578 359.851C341.779 346.473 337.916 332.628 330.987 320.135C328.528 315.681 326.328 311.349 321.477 309.391C315.778 307.087 309.092 306.827 303.808 310.656Z" fill="url(#paint2_linear_525_350)"/>
<path d="M458.811 398.925C469.603 397.903 481.591 400.311 488.433 408.715C489.154 409.482 489.625 410.448 489.784 411.488C489.777 412.424 489.487 413.336 488.953 414.104C484.917 420.81 476.151 422.405 468.789 425.056C464.96 426.428 461.303 428.243 457.893 430.462C455.974 431.985 453.754 433.084 451.38 433.685C446.183 434.465 441.87 429.821 439.514 425.177C436.812 419.979 432.585 409.305 437.782 404.383C442.026 400.485 453.476 399.41 458.811 398.925Z" fill="#FFDAD2"/>
<path d="M548.179 396.257C550.1 397.349 551.752 398.859 553.012 400.675C553.627 401.594 553.992 402.657 554.071 403.761C554.15 404.864 553.94 405.968 553.462 406.965C552.645 408.193 551.531 409.195 550.223 409.876C540.644 415.577 528.899 416.6 519.198 422.006C517.208 423.453 514.926 424.447 512.512 424.917C511.093 424.948 509.686 424.652 508.4 424.051C507.114 423.45 505.984 422.56 505.097 421.452C503.331 419.245 501.975 416.739 501.096 414.053C489.75 384.248 531.861 385.86 548.179 396.257Z" fill="#FFDAD2"/>
<path d="M273.667 382.949H318.55V419.823C318.55 423.269 317.181 426.575 314.744 429.012C312.308 431.45 309.003 432.819 305.558 432.819H286.659C283.213 432.819 279.908 431.45 277.472 429.012C275.035 426.575 273.667 423.269 273.667 419.823V382.949Z" fill="white"/>
<path d="M315.518 391.89H329.116C331.988 391.89 334.742 393.031 336.772 395.062C338.802 397.093 339.943 399.848 339.943 402.72V407.208C339.943 410.08 338.802 412.835 336.772 414.866C334.742 416.897 331.988 418.038 329.116 418.038H315.518V391.89Z" stroke="white" stroke-width="3.03781" stroke-miterlimit="10"/>
<path d="M820.075 432.022H212.085C206.765 432.022 202.453 436.331 202.453 441.647C202.453 446.964 206.765 451.273 212.085 451.273H820.075C825.395 451.273 829.707 446.964 829.707 441.647C829.707 436.331 825.395 432.022 820.075 432.022Z" fill="#EB00E1"/>
<path d="M708.309 451.568H364.645V570.802H708.309V451.568Z" fill="#EB00E1"/>
<path d="M366.984 451.568H231.988V570.802H366.984V451.568Z" fill="#EB00E1"/>
<path d="M708.327 451.568H366.915V570.802H708.327V451.568Z" fill="url(#paint3_linear_525_350)"/>
<path d="M366.984 451.568H231.988V570.802H366.984V451.568Z" fill="url(#paint4_linear_525_350)"/>
<path opacity="0.18" d="M828.633 36.8566V112.753H187.019V36.8566C187.018 32.7355 188.649 28.7819 191.554 25.8597C194.459 22.9375 198.403 21.2843 202.522 21.2614H813.129C817.249 21.2843 821.192 22.9375 824.097 25.8597C827.002 28.7819 828.633 32.7355 828.633 36.8566Z" fill="#EB00E1"/>
<path d="M463.956 431.692L686.448 431.692C692.686 431.692 697.743 426.634 697.743 420.395C697.743 414.155 692.686 409.097 686.448 409.097H463.956C457.718 409.097 452.662 414.155 452.662 420.395C452.662 426.634 457.718 431.692 463.956 431.692Z" fill="#EB00E1"/>
<path d="M463.956 431.692L686.448 431.692C692.686 431.692 697.743 426.634 697.743 420.395C697.743 414.155 692.686 409.097 686.448 409.097H463.956C457.718 409.097 452.662 414.155 452.662 420.395C452.662 426.634 457.718 431.692 463.956 431.692Z" fill="url(#paint5_linear_525_350)"/>
<path d="M541.111 431.727H711.861L756.9 317.484C757.497 315.961 757.715 314.316 757.532 312.69C757.35 311.064 756.774 309.508 755.854 308.156C754.934 306.803 753.698 305.696 752.253 304.93C750.808 304.164 749.198 303.762 747.563 303.76H613.572C607.09 303.772 600.762 305.731 595.406 309.383C590.051 313.034 585.915 318.211 583.535 324.242L541.111 431.727Z" fill="#EB00E1"/>
<path d="M549.79 431.848H711.965L754.734 323.323C755.305 321.877 755.514 320.314 755.342 318.769C755.17 317.224 754.623 315.744 753.748 314.459C752.874 313.174 751.698 312.123 750.324 311.397C748.95 310.67 747.419 310.291 745.865 310.292H618.613C612.448 310.29 606.426 312.142 601.328 315.61C596.231 319.077 592.294 323.999 590.031 329.735L549.79 431.848Z" fill="#EB00E1"/>
<path d="M549.79 431.848H711.965L754.734 323.323C755.305 321.877 755.514 320.314 755.342 318.769C755.17 317.224 754.623 315.744 753.748 314.459C752.874 313.174 751.698 312.123 750.324 311.397C748.95 310.67 747.419 310.291 745.865 310.292H618.613C612.448 310.29 606.426 312.142 601.328 315.61C596.231 319.077 592.294 323.999 590.031 329.735L549.79 431.848Z" fill="url(#paint6_linear_525_350)"/>
<path opacity="0.51" d="M733.393 267.908H493.301V281.424H733.393V267.908Z" fill="white"/>
<path d="M663.981 244.775H493.301V258.291H663.981V244.775Z" fill="white"/>
<path d="M801.575 244.775H687.314V258.291H801.575V244.775Z" fill="white"/>
<path d="M801.176 159.21H625.507V171.218H801.176V159.21Z" fill="white"/>
<path opacity="0.51" d="M776.647 180.54H588.714V192.549H776.647V180.54Z" fill="white"/>
<path d="M612.099 159.21H496.557V171.218H612.099V159.21Z" fill="white"/>
<path d="M801.177 201.23H547.244V213.238H801.177V201.23Z" fill="white"/>
<path opacity="0.51" d="M533.835 201.23H496.557V213.238H533.835V201.23Z" fill="white"/>
<path opacity="0.51" d="M801.176 222.561H633.562V234.569H801.176V222.561Z" fill="white"/>
<path d="M612.099 222.561H496.557V234.569H612.099V222.561Z" fill="white"/>
<path d="M570.854 180.038H496.557V192.046H570.854V180.038Z" fill="white"/>
<path d="M736.926 118.783H561.257V130.792H736.926V118.783Z" fill="white"/>
<path opacity="0.51" d="M712.397 140.114H524.464V152.122H712.397V140.114Z" fill="white"/>
<path d="M547.867 118.783H432.325V130.792H547.867V118.783Z" fill="white"/>
<path d="M735.367 93.9177H559.698V105.926H735.367V93.9177Z" fill="white"/>
<path d="M546.308 71.3567H430.766V83.365H546.308V71.3567Z" fill="white"/>
<path d="M546.308 50.771H430.766V62.7793H546.308V50.771Z" fill="white"/>
<path d="M506.622 139.612H432.325V151.62H506.622V139.612Z" fill="white"/>
</g>
<rect x="2.5" y="69.5" width="317" height="60" fill="#F796F3" stroke="white" stroke-width="5"/>
<path d="M42.9609 80.2422H45.2578V84.4609C48.5391 84.4609 51.1016 85.5859 52.9453 87.8359C54.8047 90.0859 55.7344 93.1562 55.7344 97.0469C55.7344 101.094 54.8047 104.297 52.9453 106.656C51.0859 109.016 48.5234 110.195 45.2578 110.195V115.469H42.9609V110.195C40.8047 110.195 38.9375 109.648 37.3594 108.555C35.7812 107.445 34.5703 105.891 33.7266 103.891C32.8984 101.891 32.4844 99.6094 32.4844 97.0469C32.4844 94.6562 32.9062 92.5 33.75 90.5781C34.6094 88.6562 35.8281 87.1562 37.4062 86.0781C39 85 40.8516 84.4609 42.9609 84.4609V80.2422ZM45.2578 108.086C47.8828 108.086 49.8828 107.133 51.2578 105.227C52.6328 103.305 53.3203 100.578 53.3203 97.0469C53.3203 90.0781 50.6328 86.5938 45.2578 86.5938V108.086ZM42.9609 86.5938C40.3516 86.5938 38.3516 87.5078 36.9609 89.3359C35.5859 91.1641 34.8984 93.7344 34.8984 97.0469C34.8984 100.578 35.5859 103.305 36.9609 105.227C38.3359 107.133 40.3359 108.086 42.9609 108.086V86.5938ZM69.7969 115.469C68.5156 115.469 67.3438 115.117 66.2812 114.414C65.2344 113.695 64.4375 112.719 63.8906 111.484H63.6797L63.8438 114.273V126.531H61.6172V89.5703H63.4453L63.6797 93.0625H63.8906C64.5156 91.7812 65.3125 90.7969 66.2812 90.1094C67.2656 89.4219 68.3359 89.0781 69.4922 89.0781C74.4609 89.0781 76.9453 93.4609 76.9453 102.227C76.9453 106.461 76.3359 109.727 75.1172 112.023C73.8984 114.32 72.125 115.469 69.7969 115.469ZM69.3516 91.1875C67.4922 91.1875 66.1094 92.0078 65.2031 93.6484C64.2969 95.2891 63.8438 97.8594 63.8438 101.359V102.086C63.8438 105.992 64.3047 108.867 65.2266 110.711C66.1484 112.539 67.5547 113.453 69.4453 113.453C71.1953 113.453 72.4922 112.547 73.3359 110.734C74.1953 108.906 74.625 106.07 74.625 102.227C74.625 98.5547 74.2266 95.7969 73.4297 93.9531C72.6328 92.1094 71.2734 91.1875 69.3516 91.1875ZM84.7969 89.5703V106.75L84.6328 111.555L93.6562 89.5703H96.4453V115H94.2422V98.5469L94.3359 93.0156L85.3125 115H82.5703V89.5703H84.7969ZM106.992 91.6797C106.82 96.0078 106.578 99.7031 106.266 102.766C105.953 105.812 105.578 108.242 105.141 110.055C104.703 111.852 104.148 113.164 103.477 113.992C102.82 114.82 101.898 115.234 100.711 115.234C100.336 115.234 99.9844 115.172 99.6562 115.047V112.984C99.8438 113.078 100.117 113.125 100.477 113.125C101.398 113.125 102.133 112.344 102.68 110.781C103.242 109.219 103.703 106.766 104.062 103.422C104.422 100.078 104.711 95.4609 104.93 89.5703H114.68V115H112.477V91.6797H106.992ZM131.32 115L131.039 111.438H130.945C129.727 114.125 127.883 115.469 125.414 115.469C123.758 115.469 122.422 114.812 121.406 113.5C120.406 112.172 119.906 110.398 119.906 108.18C119.906 105.758 120.633 103.844 122.086 102.438C123.539 101.016 125.578 100.242 128.203 100.117L130.945 99.9766V97.8672C130.945 95.4922 130.648 93.7656 130.055 92.6875C129.461 91.5938 128.477 91.0469 127.102 91.0469C125.648 91.0469 124.164 91.5234 122.648 92.4766L121.688 90.7188C123.453 89.625 125.305 89.0781 127.242 89.0781C129.336 89.0781 130.844 89.7422 131.766 91.0703C132.688 92.3828 133.148 94.5859 133.148 97.6797V115H131.32ZM125.906 113.57C127.5 113.57 128.734 112.789 129.609 111.227C130.5 109.648 130.945 107.422 130.945 104.547V101.898L128.297 102.039C126.25 102.148 124.727 102.719 123.727 103.75C122.742 104.766 122.25 106.258 122.25 108.227C122.25 110.07 122.578 111.422 123.234 112.281C123.891 113.141 124.781 113.57 125.906 113.57ZM142.078 89.5703V100.703H151.523V89.5703H153.727V115H151.523V102.719H142.078V115H139.852V89.5703H142.078ZM167.109 115.469C164.562 115.469 162.641 114.367 161.344 112.164C160.062 109.945 159.422 106.695 159.422 102.414C159.422 98.0703 160.07 94.7656 161.367 92.5C162.68 90.2188 164.609 89.0781 167.156 89.0781C168.734 89.0781 170.047 89.3672 171.094 89.9453L170.227 91.9141C169.18 91.4297 168.219 91.1875 167.344 91.1875C163.609 91.1875 161.742 94.9141 161.742 102.367C161.742 109.758 163.609 113.453 167.344 113.453C168.453 113.453 169.656 113.203 170.953 112.703V114.578C170.438 114.859 169.805 115.078 169.055 115.234C168.305 115.391 167.656 115.469 167.109 115.469ZM173.32 103.234V100.844H182.93V103.234H173.32ZM188.977 98.8281C189.039 103.828 189.477 107.516 190.289 109.891C191.117 112.266 192.391 113.453 194.109 113.453C197.984 113.453 199.922 110.109 199.922 103.422C199.922 96.8438 198.062 93.5547 194.344 93.5547C193.203 93.5547 192.133 94.0547 191.133 95.0547C190.133 96.0547 189.414 97.3125 188.977 98.8281ZM186.656 98.3359C186.656 93.5547 187.078 89.8047 187.922 87.0859C188.781 84.3516 190.219 82.3203 192.234 80.9922C194.266 79.6484 197.398 78.7734 201.633 78.3672L201.984 80.3828C198.516 80.6484 195.914 81.2578 194.18 82.2109C192.445 83.1641 191.172 84.6328 190.359 86.6172C189.562 88.6016 189.102 91.4844 188.977 95.2656H189.164C189.742 94.0469 190.523 93.1016 191.508 92.4297C192.508 91.7578 193.586 91.4219 194.742 91.4219C197.086 91.4219 198.914 92.4609 200.227 94.5391C201.555 96.6016 202.219 99.5625 202.219 103.422C202.219 107.281 201.523 110.258 200.133 112.352C198.742 114.43 196.719 115.469 194.062 115.469C191.5 115.469 189.625 114.07 188.438 111.273C187.25 108.461 186.656 104.148 186.656 98.3359ZM210.047 89.5703V106.75L209.883 111.555L218.906 89.5703H221.695V115H219.492V98.5469L219.586 93.0156L210.562 115H207.82V89.5703H210.047ZM236.719 115.469C235.438 115.469 234.266 115.117 233.203 114.414C232.156 113.695 231.359 112.719 230.812 111.484H230.602L230.766 114.273V126.531H228.539V89.5703H230.367L230.602 93.0625H230.812C231.438 91.7812 232.234 90.7969 233.203 90.1094C234.188 89.4219 235.258 89.0781 236.414 89.0781C241.383 89.0781 243.867 93.4609 243.867 102.227C243.867 106.461 243.258 109.727 242.039 112.023C240.82 114.32 239.047 115.469 236.719 115.469ZM236.273 91.1875C234.414 91.1875 233.031 92.0078 232.125 93.6484C231.219 95.2891 230.766 97.8594 230.766 101.359V102.086C230.766 105.992 231.227 108.867 232.148 110.711C233.07 112.539 234.477 113.453 236.367 113.453C238.117 113.453 239.414 112.547 240.258 110.734C241.117 108.906 241.547 106.07 241.547 102.227C241.547 98.5547 241.148 95.7969 240.352 93.9531C239.555 92.1094 238.195 91.1875 236.273 91.1875ZM258.422 89.5703V101.523L265.195 89.5703H267.703L260.648 101.523L268.312 115H265.734L258.422 101.711V115H256.219V101.711L248.93 115H246.328L254.016 101.523L246.961 89.5703H249.445L256.219 101.523V89.5703H258.422ZM281.789 115L281.508 111.438H281.414C280.195 114.125 278.352 115.469 275.883 115.469C274.227 115.469 272.891 114.812 271.875 113.5C270.875 112.172 270.375 110.398 270.375 108.18C270.375 105.758 271.102 103.844 272.555 102.438C274.008 101.016 276.047 100.242 278.672 100.117L281.414 99.9766V97.8672C281.414 95.4922 281.117 93.7656 280.523 92.6875C279.93 91.5938 278.945 91.0469 277.57 91.0469C276.117 91.0469 274.633 91.5234 273.117 92.4766L272.156 90.7188C273.922 89.625 275.773 89.0781 277.711 89.0781C279.805 89.0781 281.312 89.7422 282.234 91.0703C283.156 92.3828 283.617 94.5859 283.617 97.6797V115H281.789ZM276.375 113.57C277.969 113.57 279.203 112.789 280.078 111.227C280.969 109.648 281.414 107.422 281.414 104.547V101.898L278.766 102.039C276.719 102.148 275.195 102.719 274.195 103.75C273.211 104.766 272.719 106.258 272.719 108.227C272.719 110.07 273.047 111.422 273.703 112.281C274.359 113.141 275.25 113.57 276.375 113.57Z" fill="white"/>
<defs>
<linearGradient id="paint0_linear_525_350" x1="383.353" y1="360.162" x2="470.407" y2="393.328" gradientUnits="userSpaceOnUse">
<stop offset="0.01"/>
<stop offset="0.12" stop-opacity="0.75"/>
<stop offset="1" stop-opacity="0"/>
</linearGradient>
<linearGradient id="paint1_linear_525_350" x1="20229.4" y1="43684" x2="17799.1" y2="29236.2" gradientUnits="userSpaceOnUse">
<stop offset="0.01"/>
<stop offset="0.12" stop-opacity="0.75"/>
<stop offset="1" stop-opacity="0"/>
</linearGradient>
<linearGradient id="paint2_linear_525_350" x1="22718.2" y1="36091.3" x2="25516.2" y2="28135" gradientUnits="userSpaceOnUse">
<stop offset="0.01"/>
<stop offset="0.12" stop-opacity="0.75"/>
<stop offset="1" stop-opacity="0"/>
</linearGradient>
<linearGradient id="paint3_linear_525_350" x1="90151.5" y1="25860.3" x2="88220.5" y2="44438.4" gradientUnits="userSpaceOnUse">
<stop offset="0.01"/>
<stop offset="0.12" stop-opacity="0.75"/>
<stop offset="1" stop-opacity="0"/>
</linearGradient>
<linearGradient id="paint4_linear_525_350" x1="11748.5" y1="26678.3" x2="16183.6" y2="50491.6" gradientUnits="userSpaceOnUse">
<stop offset="0.01"/>
<stop offset="0.12" stop-opacity="0.75"/>
<stop offset="1" stop-opacity="0"/>
</linearGradient>
<linearGradient id="paint5_linear_525_350" x1="65379.5" y1="6466.1" x2="65380.8" y2="5850.76" gradientUnits="userSpaceOnUse">
<stop offset="0.01"/>
<stop offset="0.12" stop-opacity="0.75"/>
<stop offset="1" stop-opacity="0"/>
</linearGradient>
<linearGradient id="paint6_linear_525_350" x1="63814" y1="34937.9" x2="64104.6" y2="22491.4" gradientUnits="userSpaceOnUse">
<stop offset="0.01"/>
<stop offset="0.12" stop-opacity="0.75"/>
<stop offset="1" stop-opacity="0"/>
</linearGradient>
<clipPath id="clip0_525_350">
<rect width="764" height="576" fill="white" transform="translate(95)"/>
</clipPath>
</defs>
</svg>
