<svg width="23" height="18" viewBox="0 0 23 18" fill="none" xmlns="http://www.w3.org/2000/svg">
<g clip-path="url(#clip0)">
<path d="M13.5725 8.03306C13.6369 8.3738 13.683 8.71453 13.683 9.15652C13.683 13.015 11.0953 15.75 7.20001 15.75C3.4705 15.75 0.450012 12.7296 0.450012 9C0.450012 5.27045 3.4705 2.25 7.20001 2.25C9.02336 2.25 10.5428 2.91301 11.7215 4.01808L9.88894 5.77695C9.39165 5.29808 8.51686 4.73636 7.20001 4.73636C4.89784 4.73636 3.01923 6.64256 3.01923 9C3.01923 11.3574 4.89784 13.2636 7.20001 13.2636C9.87052 13.2636 10.8743 11.339 11.0308 10.3537H7.20001V8.03303H13.5725V8.03306ZM20.0906 8.25936V6.3H18.1219V8.25936H16.1625V10.2281H18.1219V12.1875H20.0906V10.2281H22.05V8.25936H20.0906Z" fill="white"/>
</g>
<defs>
<clipPath id="clip0">
<rect width="22.5" height="18" fill="white"/>
</clipPath>
</defs>
</svg>
