<svg width="21" height="18" viewBox="0 0 21 18" fill="none" xmlns="http://www.w3.org/2000/svg">
<path d="M10.303 18L9.93939 17.697C2.12121 11.3333 0 9.09091 0 5.45455C0 2.42424 2.42424 0 5.45455 0C7.93939 0 9.33333 1.39394 10.303 2.48485C11.2727 1.39394 12.6667 0 15.1515 0C18.1818 0 20.6061 2.42424 20.6061 5.45455C20.6061 9.09091 18.4848 11.3333 10.6667 17.697L10.303 18ZM5.45455 1.21212C3.09091 1.21212 1.21212 3.09091 1.21212 5.45455C1.21212 8.54545 3.15152 10.6061 10.303 16.4242C17.4545 10.6061 19.3939 8.54545 19.3939 5.45455C19.3939 3.09091 17.5152 1.21212 15.1515 1.21212C13.0303 1.21212 11.8788 2.48485 10.9697 3.51515L10.303 4.30303L9.63636 3.51515C8.72727 2.48485 7.57576 1.21212 5.45455 1.21212Z" fill="#000"/>
</svg>
