<svg width="191" height="30" viewBox="0 0 191 30" fill="none" xmlns="http://www.w3.org/2000/svg">
<path d="M15.7868 29.8514C12.7798 29.8514 10.0735 29.2227 7.66788 27.9652C5.28961 26.6804 3.41706 24.9035 2.05024 22.6346C0.683412 20.3657 0 17.796 0 14.9257C0 12.0554 0.683412 9.48576 2.05024 7.21683C3.41706 4.9479 5.28961 3.1847 7.66788 1.92722C10.0735 0.642407 12.7798 0 15.7868 0C18.4111 0 20.7757 0.464721 22.8806 1.39416C24.9855 2.3236 26.7351 3.66309 28.1292 5.41262L22.9626 10.0872C21.1038 7.84557 18.8485 6.72478 16.1969 6.72478C14.6387 6.72478 13.2445 7.06648 12.0144 7.74989C10.8116 8.43331 9.86847 9.40375 9.18506 10.6612C8.52898 11.8914 8.20094 13.3129 8.20094 14.9257C8.20094 16.5386 8.52898 17.9737 9.18506 19.2312C9.86847 20.4614 10.8116 21.4181 12.0144 22.1015C13.2445 22.785 14.6387 23.1267 16.1969 23.1267C18.8485 23.1267 21.1038 22.0059 22.9626 19.7643L28.1292 24.4388C26.7351 26.1883 24.9855 27.5278 22.8806 28.4573C20.7757 29.3867 18.4111 29.8514 15.7868 29.8514Z" fill="white"/>
<path d="M50.4999 23.7007H38.3625L36.1072 29.2774H27.8243L40.4947 0.574066H48.4906L61.2021 29.2774H52.7551L50.4999 23.7007ZM48.1216 17.714L44.4312 8.52898L40.7408 17.714H48.1216Z" fill="white"/>
<path d="M63.5038 0.574066H71.6227V22.8396H85.3183V29.2774H63.5038V0.574066Z" fill="white"/>
<path d="M88.5311 0.574066H96.65V29.2774H88.5311V0.574066Z" fill="white"/>
<path d="M115.548 0.574066C118.145 0.574066 120.4 1.01145 122.314 1.88622C124.227 2.73365 125.703 3.96379 126.742 5.57664C127.781 7.16216 128.3 9.03471 128.3 11.1943C128.3 13.3539 127.781 15.2264 126.742 16.8119C125.703 18.3975 124.227 19.6276 122.314 20.5024C120.4 21.3498 118.145 21.7735 115.548 21.7735H110.545V29.2774H102.426V0.574066H115.548ZM115.056 15.3768C116.723 15.3768 117.981 15.0214 118.828 14.3106C119.676 13.5726 120.099 12.5338 120.099 11.1943C120.099 9.8548 119.676 8.81602 118.828 8.07793C117.981 7.33985 116.723 6.9708 115.056 6.9708H110.545V15.3768H115.056Z" fill="white"/>
<path d="M142.746 29.8514C140.423 29.8514 138.168 29.5644 135.981 28.9903C133.794 28.4163 132.017 27.6509 130.65 26.6941L133.315 20.7074C134.6 21.5548 136.09 22.2382 137.785 22.7576C139.48 23.277 141.147 23.5367 142.787 23.5367C145.904 23.5367 147.462 22.7576 147.462 21.1994C147.462 20.3793 147.011 19.7779 146.109 19.3952C145.234 18.9852 143.813 18.5615 141.844 18.1241C139.685 17.6594 137.881 17.1673 136.432 16.6479C134.983 16.1012 133.739 15.2401 132.7 14.0646C131.661 12.8892 131.142 11.3036 131.142 9.30807C131.142 7.55854 131.62 5.98669 132.577 4.59253C133.534 3.17103 134.956 2.05024 136.842 1.23014C138.755 0.410048 141.093 0 143.854 0C145.74 0 147.599 0.218692 149.43 0.656077C151.262 1.06612 152.875 1.68119 154.269 2.50129L151.767 8.52898C149.034 7.05281 146.382 6.31473 143.813 6.31473C142.2 6.31473 141.024 6.56076 140.286 7.05281C139.548 7.51753 139.179 8.1326 139.179 8.89803C139.179 9.66345 139.616 10.2375 140.491 10.6202C141.366 11.0029 142.774 11.3993 144.715 11.8094C146.902 12.2741 148.706 12.7798 150.127 13.3265C151.576 13.8459 152.82 14.6934 153.859 15.8688C154.925 17.017 155.458 18.5888 155.458 20.5844C155.458 22.3066 154.979 23.8647 154.023 25.2589C153.066 26.6531 151.631 27.7739 149.717 28.6213C147.804 29.4414 145.48 29.8514 142.746 29.8514Z" fill="white"/>
<path fill-rule="evenodd" clip-rule="evenodd" d="M167.616 12.4123L161.205 7.16664C161.186 7.19695 161.167 7.22735 161.149 7.25784C159.782 9.52676 159.098 12.0827 159.098 14.9257C159.098 17.7687 159.782 20.3247 161.149 22.5936C162.543 24.8625 164.443 26.6394 166.848 27.9242C169.281 29.209 172.015 29.8514 175.049 29.8514C178.084 29.8514 180.803 29.209 183.209 27.9242C185.642 26.6394 187.542 24.8625 188.909 22.5936C190.303 20.3247 191 17.7687 191 14.9257C191 12.0827 190.303 9.52676 188.909 7.25784C187.542 4.98891 185.642 3.21204 183.209 1.92722C180.803 0.642407 178.084 0 175.049 0C172.967 0 171.026 0.302558 169.227 0.907675L173.369 6.89033C173.907 6.77996 174.467 6.72478 175.049 6.72478C176.498 6.72478 177.81 7.06648 178.986 7.74989C180.161 8.43331 181.091 9.40375 181.774 10.6612C182.457 11.8914 182.799 13.3129 182.799 14.9257C182.799 16.5386 182.457 17.9737 181.774 19.2312C181.091 20.4614 180.161 21.4181 178.986 22.1015C177.81 22.785 176.498 23.1267 175.049 23.1267C173.6 23.1267 172.288 22.785 171.113 22.1015C169.937 21.4181 169.008 20.4614 168.324 19.2312C167.641 17.9737 167.299 16.5386 167.299 14.9257C167.299 14.0287 167.405 13.1909 167.616 12.4123Z" fill="url(#paint0_angular)"/>
<defs>
<radialGradient id="paint0_angular" cx="0" cy="0" r="1" gradientUnits="userSpaceOnUse" gradientTransform="translate(175.746 14.5157) rotate(-153.435) scale(23.8392 17.4821)">
<stop offset="0.0525326" stop-color="#AE3AFE"/>
<stop offset="1" stop-color="#EB00E1"/>
</radialGradient>
</defs>
</svg>
