<svg width="86" height="86" viewBox="0 0 86 86" fill="none" xmlns="http://www.w3.org/2000/svg">
<path d="M41.6562 38.9688H44.3438C44.7002 38.9686 45.042 39.11 45.2942 39.3619C45.5463 39.6139 45.688 39.9556 45.6882 40.312C45.6883 40.6684 45.5469 41.0103 45.295 41.2624C45.0431 41.5145 44.7013 41.6563 44.3449 41.6564L38.9688 41.6562V44.3438L41.6562 44.3438V47.0312H44.3438V44.3439H44.3449C44.8743 44.3438 45.3985 44.2395 45.8876 44.0368C46.3767 43.8342 46.821 43.5372 47.1953 43.1628C47.5696 42.7884 47.8665 42.3439 48.069 41.8548C48.2715 41.3656 48.3757 40.8414 48.3757 40.312C48.3756 39.7826 48.2712 39.2584 48.0686 38.7693C47.8659 38.2803 47.5689 37.8359 47.1945 37.4616C46.8201 37.0873 46.3756 36.7904 45.8865 36.5879C45.3974 36.3854 44.8732 36.2812 44.3438 36.2812H41.6562C41.2999 36.2812 40.9581 36.1397 40.7061 35.8877C40.4541 35.6357 40.3125 35.2939 40.3125 34.9375C40.3125 34.5811 40.4541 34.2393 40.7061 33.9873C40.9581 33.7353 41.2999 33.5938 41.6562 33.5938H47.0312V30.9062H44.3438V28.2188H41.6562V30.9062C40.5871 30.9062 39.5617 31.331 38.8057 32.087C38.0497 32.843 37.625 33.8683 37.625 34.9375C37.625 36.0067 38.0497 37.032 38.8057 37.788C39.5617 38.544 40.5871 38.9688 41.6562 38.9688Z" fill="#F6F6F6"/>
<path d="M4.03125 61.8125H12.0938C12.4501 61.8125 12.7919 61.6709 13.0439 61.4189C13.2959 61.1669 13.4375 60.8251 13.4375 60.4688H14.3415C17.9993 63.0815 22.3799 64.4905 26.875 64.5H33.5938V68.5312C33.2374 68.5313 32.8956 68.6728 32.6436 68.9248C32.3916 69.1768 32.25 69.5186 32.25 69.875V81.9688C32.25 82.3251 32.3916 82.6669 32.6436 82.9189C32.8956 83.1709 33.2374 83.3125 33.5938 83.3125H52.4062C52.7626 83.3125 53.1044 83.1709 53.3564 82.9189C53.6084 82.6669 53.75 82.3251 53.75 81.9688V69.875C53.75 69.5186 53.6084 69.1768 53.3564 68.9248C53.1044 68.6728 52.7626 68.5313 52.4062 68.5312H52.0282C52.6475 67.249 53.1056 65.8949 53.392 64.5H60.4688C64.7939 64.4894 69.0167 63.1833 72.5925 60.7502C72.6569 61.0508 72.8225 61.3203 73.0616 61.5136C73.3007 61.7069 73.5988 61.8124 73.9062 61.8125H81.9688C82.3251 61.8125 82.6669 61.6709 82.9189 61.4189C83.1709 61.1669 83.3125 60.8251 83.3125 60.4688V44.3438C83.3125 43.9874 83.1709 43.6456 82.9189 43.3936C82.6669 43.1416 82.3251 43 81.9688 43H73.9062C73.5499 43 73.2081 43.1416 72.9561 43.3936C72.7041 43.6456 72.5625 43.9874 72.5625 44.3438V47.0312H71.5455C67.8698 47.022 64.3188 48.3632 61.5671 50.8002C61.1613 49.5161 60.2903 48.4299 59.125 47.7548V33.5938C59.1209 30.6475 58.1503 27.7839 56.3619 25.4425C54.5735 23.1011 52.0662 21.4112 49.2248 20.6321L49.3461 20.4503C50.4671 18.7723 51.0645 16.7992 51.0625 14.7812C51.0625 14.4249 50.9209 14.0831 50.6689 13.8311C50.4169 13.5791 50.0751 13.4375 49.7188 13.4375H36.2812C35.9249 13.4375 35.5831 13.5791 35.3311 13.8311C35.0791 14.0831 34.9375 14.4249 34.9375 14.7812C34.9355 16.7992 35.5329 18.7724 36.6539 20.4504L36.7752 20.6321C33.9338 21.4112 31.4265 23.1011 29.6381 25.4425C27.8497 27.7839 26.8791 30.6475 26.875 33.5938V46.8726C26.8757 47.0747 26.8197 47.2729 26.7135 47.4447C26.6073 47.6166 26.455 47.7553 26.274 47.845C25.4621 48.2486 24.8236 48.9323 24.4764 49.7698C21.9372 47.9801 18.9047 47.0232 15.7981 47.0312H13.4375V44.3438C13.4375 43.9874 13.2959 43.6456 13.0439 43.3936C12.7919 43.1416 12.4501 43 12.0938 43H4.03125C3.67487 43 3.33308 43.1416 3.08108 43.3936C2.82908 43.6456 2.6875 43.9874 2.6875 44.3438V60.4688C2.6875 60.8251 2.82908 61.1669 3.08108 61.4189C3.33308 61.6709 3.67487 61.8125 4.03125 61.8125ZM75.25 45.6875H80.625V59.125H75.25V45.6875ZM51.0625 80.625H34.9375V71.2188H51.0625V80.625ZM36.2812 68.5312V56.4375H45.6832C43.9489 58.3629 42.9925 60.8645 43 63.4558V65.0301H45.6875V63.4558C45.6847 62.4269 45.8859 61.4076 46.2797 60.457C46.6734 59.5064 47.2518 58.6434 47.9813 57.9178C48.1061 57.793 48.2051 57.6449 48.2727 57.4818C48.3402 57.3188 48.375 57.1441 48.375 56.9676V52.4062C48.375 52.0499 48.5166 51.7081 48.7686 51.4561C49.0206 51.2041 49.3624 51.0625 49.7188 51.0625C50.0751 51.0625 50.4169 51.2041 50.6689 51.4561C50.9209 51.7081 51.0625 52.0499 51.0625 52.4062V60.9988C51.0645 63.6525 50.3434 66.2565 48.9768 68.5312H36.2812ZM71.5455 49.7188H72.5625V57.7812H72.5623C72.2716 57.7813 71.9887 57.8756 71.7561 58.05C68.4958 60.4847 64.5378 61.8041 60.4688 61.8125H53.7288C53.7414 61.542 53.75 61.2709 53.75 60.9988L61.8125 59.125V56.4375H54.8598C54.2478 56.4374 53.75 55.8346 53.75 55.0938V55.0937C53.7439 54.728 53.875 54.3733 54.1174 54.0994C54.2103 53.9929 54.3243 53.9069 54.4522 53.8467C54.5801 53.7866 54.7191 53.7537 54.8603 53.75H61.8125V53.7494C61.9889 53.75 62.1636 53.7156 62.3266 53.6483C62.4897 53.5811 62.6378 53.4822 62.7624 53.3574C63.9131 52.2002 65.2818 51.2828 66.7894 50.6582C68.2971 50.0336 69.9136 49.7143 71.5455 49.7188ZM38.89 18.9596C38.318 18.1032 37.9283 17.1384 37.7451 16.125H48.2549C48.0717 17.1383 47.682 18.1032 47.11 18.9595L46.3017 20.1718C46.098 20.1626 45.8935 20.1562 45.6875 20.1562H40.3125C40.1065 20.1562 39.902 20.1626 39.6982 20.1718L38.89 18.9596ZM27.476 50.2487C28.1045 49.9371 28.6331 49.4557 29.0019 48.859C29.3707 48.2622 29.5649 47.5741 29.5625 46.8726V33.5938C29.5657 30.7437 30.6993 28.0112 32.7147 25.9959C34.73 23.9806 37.4624 22.847 40.3125 22.8438H45.6875C48.5376 22.847 51.27 23.9806 53.2853 25.9959C55.3007 28.0112 56.4343 30.7437 56.4375 33.5938V47.0317H53.75V49.7192H56.4375C56.9086 49.7197 57.3712 49.8441 57.779 50.0799C58.1869 50.3157 58.5255 50.6545 58.7611 51.0625H54.86C54.427 51.0622 53.9975 51.1398 53.592 51.2915C53.3234 50.3578 52.7266 49.5525 51.9114 49.0238C51.0962 48.4952 50.1175 48.2788 49.1554 48.4145C48.1933 48.5502 47.3126 49.0288 46.6754 49.7622C46.0382 50.4957 45.6874 51.4347 45.6875 52.4062V53.75H34.7088C34.4299 52.9643 33.9147 52.2841 33.2339 51.8029C32.5531 51.3217 31.74 51.0631 30.9062 51.0625H30.9054L26.8866 51.0633C26.9114 50.8899 26.9781 50.7252 27.0807 50.5833C27.1834 50.4414 27.3191 50.3265 27.476 50.2487ZM15.7981 49.7188C17.43 49.7143 19.0465 50.0336 20.5541 50.6582C22.0618 51.2828 23.4305 52.2002 24.5812 53.3574C24.7059 53.4822 24.8541 53.5812 25.0171 53.6488C25.1802 53.7163 25.3549 53.7511 25.5314 53.7511H25.5317L30.9059 53.75C31.2623 53.7499 31.6041 53.8914 31.8562 54.1433C32.1083 54.3952 32.25 54.737 32.2501 55.0933C32.2502 55.4497 32.1087 55.7916 31.8568 56.0436C31.6049 56.2957 31.2631 56.4374 30.9067 56.4375H24.1875V59.125L33.5938 59.1251V61.8125H26.875C22.8059 61.8041 18.8478 60.4847 15.5875 58.05C15.3549 57.8756 15.072 57.7812 14.7812 57.7812H13.4375V49.7188H15.7981ZM5.375 45.6875H10.75V59.125H5.375V45.6875Z" fill="#F6F6F6"/>
<path d="M24.1875 24.1875H20.1562V26.875H24.1875V24.1875Z" fill="#F6F6F6"/>
<path d="M65.8438 24.1875H61.8125V26.875H65.8438V24.1875Z" fill="#F6F6F6"/>
<path d="M58.2028 8.42814L55.3523 11.2787L57.2527 13.1791L60.1032 10.3285L58.2028 8.42814Z" fill="#F6F6F6"/>
<path d="M44.3438 2.6875H41.6562V6.71875H44.3438V2.6875Z" fill="#F6F6F6"/>
<path d="M27.7973 8.42806L25.8968 10.3284L28.7472 13.179L30.6477 11.2787L27.7973 8.42806Z" fill="#F6F6F6"/>
</svg>
