<svg width="86" height="86" viewBox="0 0 86 86" fill="none" xmlns="http://www.w3.org/2000/svg">
<g clip-path="url(#clip0)">
<path d="M84.673 17.3525H77.6708C77.8742 17.0671 78.0585 16.7672 78.22 16.4529C79.1464 14.6433 79.2717 12.5122 78.5638 10.6055L76.4418 4.90239C75.7345 2.99765 74.2484 1.46624 72.366 0.70119C70.4816 -0.0645144 68.3472 -0.00349428 66.5093 0.86916L49.7163 8.84443C48.8863 8.25129 47.8713 7.90091 46.7756 7.90091H39.2248C38.1291 7.90091 37.1134 8.25194 36.2834 8.84509L19.491 0.868503C17.6532 -0.00349419 15.5188 -0.0645144 13.6344 0.70119C11.752 1.46624 10.2658 2.99765 9.55851 4.90174L7.43658 10.6061C6.72862 12.5122 6.85394 14.6433 7.78105 16.4529C7.9418 16.7672 8.12683 17.0677 8.33023 17.3525H1.32735C0.594454 17.3525 0 17.9463 0 18.6798V28.2351C0 28.968 0.594454 29.5624 1.32735 29.5624C2.06025 29.5624 2.6547 28.968 2.6547 28.2351V20.0065H11.874C12.0216 20.0584 12.1712 20.1063 12.3228 20.1482L23.4659 23.2157C20.9896 27.0101 18.8054 31.0013 16.9354 35.1369H2.6547V33.5438C2.6547 32.8109 2.06025 32.2171 1.32735 32.2171C0.594454 32.2171 0 32.8109 0 33.5438V36.4643C0 37.1971 0.594454 37.7916 1.32735 37.7916H6.06068V84.7817C6.06068 85.5153 6.65513 86.1091 7.38803 86.1091H78.6123C79.3452 86.1091 79.9397 85.5153 79.9397 84.7817V77.0748C79.9397 76.3419 79.3452 75.7475 78.6123 75.7475C77.8788 75.7475 77.285 76.3419 77.285 77.0748V83.455H50.963V38.6078C54.7226 45.7288 57.2677 53.4718 58.4389 61.472C58.5164 62.0015 58.9048 62.4326 59.4238 62.5651C59.5327 62.5933 59.6429 62.6065 59.7525 62.6065C60.1626 62.6065 60.5576 62.4162 60.8122 62.0783C62.7202 59.5469 64.4944 56.8371 66.096 54.0079C68.7782 55.8345 71.3824 57.8712 73.8534 60.0758C74.2701 60.4471 74.875 60.5187 75.3664 60.2536C75.8579 59.9892 76.1315 59.4452 76.0501 58.8928C74.9905 51.6642 73.0149 44.5557 70.2145 37.7916H77.2843V71.7654C77.2843 72.4989 77.8788 73.0928 78.6117 73.0928C79.3452 73.0928 79.939 72.4989 79.939 71.7654V37.7916H84.673C85.4059 37.7916 85.9997 37.1971 85.9997 36.4643V18.6798C86.0004 17.9463 85.4066 17.3525 84.673 17.3525ZM67.6477 3.26666C68.832 2.70501 70.1522 2.66696 71.3667 3.16037C72.5792 3.65312 73.4978 4.59992 73.9538 5.82754L76.0751 11.53C76.5317 12.7582 76.4537 14.0771 75.8566 15.243C75.2601 16.4083 74.2359 17.2416 72.9735 17.5887L51.8455 23.4053V17.0264C56.5945 14.1184 68.4338 8.12072 71.3804 12.2799C71.8036 12.8777 72.6317 13.02 73.2301 12.5962C73.8285 12.1723 73.9702 11.3436 73.5463 10.7459C71.2722 7.53545 66.4798 7.37929 59.3011 10.2827C56.3439 11.4781 53.6137 12.9374 51.8455 13.9498V12.9702C51.8455 12.2596 51.6978 11.5825 51.4328 10.9677L67.6477 3.26666ZM39.2248 10.555H46.7756C48.1075 10.555 49.1908 11.6389 49.1908 12.9702V23.9413C49.1908 25.2733 48.1075 26.3566 46.7756 26.3566H39.2248C37.8929 26.3566 36.8096 25.2733 36.8096 23.9413V12.9702C36.8096 11.6382 37.8929 10.555 39.2248 10.555ZM36.994 35.1362C38.2636 33.0268 39.6454 30.9823 41.1322 29.0113H44.8669C46.3543 30.9823 47.7361 33.0268 49.0051 35.1362H36.994ZM10.1438 15.243C9.5467 14.0771 9.46862 12.7582 9.92463 11.5306L12.0472 5.82688C12.5026 4.59992 13.4212 3.65312 14.6337 3.16037C15.8475 2.66696 17.1683 2.70501 18.352 3.26666L34.5676 10.969C34.3025 11.5831 34.1549 12.2596 34.1549 12.9708V14.0259C32.3925 13.0115 29.6007 11.509 26.568 10.2827C19.39 7.37929 14.5969 7.53545 12.3228 10.7459C11.8989 11.3436 12.0407 12.1723 12.639 12.5962C13.2374 13.02 14.0655 12.8783 14.4887 12.2799C17.4629 8.08135 29.497 14.2319 34.1549 17.1071V23.4053L13.0275 17.5893C11.7644 17.2416 10.7402 16.4083 10.1438 15.243ZM34.7506 26.3224C35.4114 27.5586 36.5688 28.4909 37.9552 28.8499C31.7475 37.5108 27.4742 47.4623 25.4697 57.9224C24.0597 55.8621 22.7415 53.7028 21.5349 51.4726C21.3584 51.1458 21.0539 50.9083 20.6937 50.8171C20.3341 50.7259 19.9529 50.7896 19.6426 50.9923C17.4321 52.4338 15.2675 54.0151 13.1771 55.7132C15.3298 44.4133 19.7777 33.5176 26.156 23.9564L34.7506 26.3224ZM8.71538 37.7916H15.7858C12.9855 44.5557 11.0099 51.6635 9.94956 58.8928C9.86886 59.4452 10.1418 59.9892 10.6333 60.2536C11.1254 60.518 11.7296 60.4471 12.1463 60.0758C14.6173 57.8712 17.2215 55.8345 19.9044 54.0079C21.506 56.8371 23.2795 59.5463 25.1882 62.0783C25.4428 62.4162 25.8378 62.6071 26.2478 62.6071C26.3574 62.6071 26.4677 62.5933 26.5766 62.5651C27.0956 62.4326 27.4833 62.0015 27.5608 61.472C28.7326 53.4718 31.2777 45.7282 35.0367 38.6072V83.455H8.71538V37.7916ZM37.6914 83.455V37.7916H48.3089V83.455H37.6914ZM66.3578 50.9923C66.0474 50.7896 65.6656 50.7266 65.3066 50.8178C64.9471 50.909 64.642 51.1465 64.4655 51.4726C63.2589 53.7028 61.9407 55.8628 60.5307 57.9224C58.5262 47.4617 54.2528 37.5108 48.0445 28.8505C49.4309 28.4923 50.589 27.5592 51.2497 26.3224L59.8463 23.9558C66.2233 33.5189 70.6712 44.4146 72.8239 55.7132C70.7328 54.0151 68.5683 52.4338 66.3578 50.9923ZM83.3456 35.1369H69.0656C67.1956 31.0013 65.0114 27.0101 62.5358 23.2157L73.6776 20.1482C73.8291 20.1063 73.9787 20.0584 74.1264 20.0065H83.3456V35.1369Z" fill="#F6F6F6"/>
</g>
<defs>
<clipPath id="clip0">
<rect width="86" height="86" fill="white"/>
</clipPath>
</defs>
</svg>
