<svg width="70" height="70" viewBox="0 0 70 70" fill="none" xmlns="http://www.w3.org/2000/svg">
<g clip-path="url(#clip0)">
<path d="M36.7626 38.4919H8.69153C8.12524 38.4919 7.66614 38.9509 7.66614 39.5173C7.66614 40.0838 8.12524 40.5427 8.69153 40.5427H36.7625C37.3289 40.5427 37.7879 40.0836 37.7879 39.5173C37.788 38.9509 37.3289 38.4919 36.7626 38.4919Z" fill="#F6F6F6"/>
<path d="M36.7626 44.9629H8.69153C8.12524 44.9629 7.66614 45.4219 7.66614 45.9883C7.66614 46.5547 8.12524 47.0137 8.69153 47.0137H36.7625C37.3289 47.0137 37.7879 46.5547 37.7879 45.9883C37.788 45.4219 37.3289 44.9629 36.7626 44.9629Z" fill="#F6F6F6"/>
<path d="M22.7271 51.4338H8.69153C8.12524 51.4338 7.66614 51.8929 7.66614 52.4592C7.66614 53.0257 8.12524 53.4846 8.69153 53.4846H22.7271C23.2934 53.4846 23.7525 53.0257 23.7525 52.4592C23.7525 51.8928 23.2934 51.4338 22.7271 51.4338Z" fill="#F6F6F6"/>
<path d="M63.7395 25.55H35.6685C35.1022 25.55 34.6431 26.009 34.6431 26.5754C34.6431 27.1419 35.1022 27.6008 35.6685 27.6008H63.7395C64.306 27.6008 64.7649 27.1419 64.7649 26.5754C64.7649 26.009 64.306 25.55 63.7395 25.55Z" fill="#F6F6F6"/>
<path d="M63.7395 32.0209H49.704C49.1376 32.0209 48.6786 32.4798 48.6786 33.0463C48.6786 33.6127 49.1376 34.0717 49.704 34.0717H63.7395C64.306 34.0717 64.7649 33.6127 64.7649 33.0463C64.7649 32.4798 64.306 32.0209 63.7395 32.0209Z" fill="#F6F6F6"/>
<path d="M6.35059 7.82971H26.8588C27.4251 7.82971 27.8842 7.37075 27.8842 6.80432C27.8842 6.2379 27.4251 5.77893 26.8588 5.77893H6.35059C5.7843 5.77893 5.3252 6.2379 5.3252 6.80432C5.3252 7.37075 5.7843 7.82971 6.35059 7.82971Z" fill="#F6F6F6"/>
<path d="M6.35059 12.9564H16.6046C17.1709 12.9564 17.63 12.4975 17.63 11.931C17.63 11.3646 17.1709 10.9056 16.6046 10.9056H6.35059C5.7843 10.9056 5.3252 11.3646 5.3252 11.931C5.3252 12.4975 5.7843 12.9564 6.35059 12.9564Z" fill="#F6F6F6"/>
<path d="M38.8338 30.847H6.62022C2.97106 30.847 0.0020752 33.8159 0.0020752 37.4652V54.1036C0.0020752 57.7529 2.97092 60.7217 6.62022 60.7217H6.85141L5.5262 68.0798C5.40096 68.7753 5.73469 69.4682 6.35663 69.8037C6.98622 70.1433 7.74733 70.0317 8.25333 69.5512L17.3269 60.938C17.4739 60.7984 17.6663 60.7217 17.8689 60.7217H38.8336C42.4829 60.7217 45.4518 57.7529 45.4518 54.1036V37.4652C45.452 33.8159 42.4831 30.847 38.8338 30.847ZM43.4011 54.1036C43.4011 56.622 41.3521 58.671 38.8338 58.671H17.869C17.1387 58.671 16.4448 58.9478 15.915 59.4507L7.77194 67.1805L8.92257 60.792C9.12177 59.6861 8.27124 58.6708 7.14932 58.6708H6.62022C4.10186 58.6708 2.05299 56.6218 2.05299 54.1035V37.4652C2.05299 34.9468 4.10186 32.8978 6.62022 32.8978H38.8338C41.3521 32.8978 43.4011 34.9468 43.4011 37.4652V54.1036Z" fill="#F6F6F6"/>
<path d="M4.02448 18.2396H11.6725C11.6883 18.2396 11.7029 18.2481 11.7107 18.2615L14.9773 23.9012C15.3175 24.4887 15.926 24.8393 16.6048 24.8393C17.2837 24.8393 17.8921 24.4887 18.2324 23.9012L21.4989 18.2617C21.5068 18.248 21.5215 18.2396 21.5372 18.2396H29.1851C31.374 18.2396 33.1546 16.4589 33.1546 14.27V3.96949C33.1545 1.78076 31.3738 0 29.185 0H4.02448C1.83575 0 0.0549927 1.78076 0.0549927 3.96949V4.40275C0.0549927 4.96918 0.514094 5.42814 1.08038 5.42814C1.64667 5.42814 2.10577 4.96918 2.10577 4.40275V3.96949C2.10591 2.91143 2.96656 2.05078 4.02448 2.05078H29.185C30.2429 2.05078 31.1037 2.91143 31.1037 3.96936V14.2699C31.1037 15.3278 30.2429 16.1886 29.185 16.1886H21.5371C20.7922 16.1886 20.0976 16.589 19.7242 17.2335L16.6047 22.6192L13.4853 17.2335C13.1119 16.589 12.4174 16.1886 11.6724 16.1886H4.02435C2.96642 16.1886 2.10577 15.3278 2.10577 14.2699V9.19611C2.10577 8.62969 1.64667 8.17072 1.08038 8.17072C0.514094 8.17072 0.0549927 8.62969 0.0549927 9.19611V14.27C0.0549927 16.4589 1.83575 18.2396 4.02448 18.2396Z" fill="#F6F6F6"/>
<path d="M64.0062 19.2437H35.4015C32.0977 19.2437 29.41 21.9315 29.41 25.2352V27.079C29.41 27.6454 29.8691 28.1044 30.4354 28.1044C31.0017 28.1044 31.4608 27.6454 31.4608 27.079V25.2352C31.4608 23.0622 33.2285 21.2944 35.4014 21.2944H64.0062C66.1792 21.2944 67.947 23.0622 67.947 25.2352V39.8161C67.947 41.9891 66.1792 43.7569 64.0062 43.7569H63.5363C62.4666 43.7569 61.6595 44.7247 61.8487 45.7756L62.8082 51.1033L55.8318 44.481C55.3402 44.0141 54.6958 43.7569 54.0176 43.7569H49.22C48.6535 43.7569 48.1946 44.2159 48.1946 44.7823C48.1946 45.3487 48.6535 45.8077 49.22 45.8077H54.0176C54.168 45.8077 54.3108 45.8647 54.4198 45.9682L62.4768 53.6165C62.9668 54.0815 63.6975 54.181 64.2948 53.8584C64.8909 53.5367 65.2106 52.8726 65.0904 52.2063L63.9381 45.8078H64.0061C67.3099 45.8078 69.9977 43.1199 69.9977 39.8163V25.2352C69.9978 21.9314 67.31 19.2437 64.0062 19.2437Z" fill="#F6F6F6"/>
</g>
<defs>
<clipPath id="clip0">
<rect width="70" height="70" fill="white"/>
</clipPath>
</defs>
</svg>
