<svg width="70" height="70" viewBox="0 0 70 70" fill="none" xmlns="http://www.w3.org/2000/svg">
<path d="M27.6186 4.10156C27.0523 4.10156 26.5932 4.56066 26.5932 5.12695C26.5932 5.69324 27.0523 6.15234 27.6186 6.15234C28.1848 6.15234 28.6439 5.69324 28.6439 5.12695C28.6439 4.56066 28.1848 4.10156 27.6186 4.10156ZM64.873 5.88438H55.7115V2.66602C55.7115 1.19602 54.5155 0 53.0455 0H16.9545C15.4845 0 14.2885 1.19602 14.2885 2.66602V5.88438H5.12695C2.29988 5.88438 0 8.18426 0 11.0113V49.6234C0 51.7752 1.29842 53.6151 3.19088 54.3762L0.755781 58.594C-0.792148 61.2333 0.143008 64.7473 2.81832 66.2919C5.47559 67.826 8.94619 66.9484 10.5163 64.2294L15.9888 54.7505H29.1052L28.3243 60.5549H27.1817C26.2328 60.5549 25.393 61.1935 25.1396 62.1076L23.6955 67.3146C23.5169 67.9581 23.6465 68.6321 24.0506 69.1637C24.4547 69.6953 25.0697 70 25.7376 70H44.2624C44.9303 70 45.5453 69.6951 45.9494 69.1636C46.3535 68.632 46.483 67.958 46.3046 67.3146L44.8604 62.1078C44.607 61.1934 43.7674 60.5548 42.8183 60.5548H41.6757L40.8948 54.7504H64.873C67.7001 54.7504 70 52.4505 70 49.6234V11.0113C70 8.18426 67.7001 5.88438 64.873 5.88438ZM55.7115 12.0367H63.8477V46.5473H55.7115V12.0367ZM16.3393 2.66602C16.3393 2.32682 16.6153 2.05078 16.9545 2.05078H53.0455C53.3847 2.05078 53.6607 2.32682 53.6607 2.66602V8.20312H16.3393V2.66602ZM24.6538 14.847C32.1665 14.847 38.2785 20.9591 38.2785 28.4718C38.2785 35.9845 32.1665 42.0965 24.6538 42.0965C15.9361 42.0965 9.39627 33.9381 11.3802 25.3902C11.5083 24.8385 11.1649 24.2875 10.6132 24.1596C10.0615 24.0316 9.5107 24.375 9.3826 24.9267C8.12656 30.3379 9.93617 36.1215 13.8495 39.8191L12.0043 43.0143C10.7907 42.8002 9.53217 43.3835 8.91734 44.4575L7.71094 46.5473H6.15234V12.0367H14.2885V16.7104C13.1675 17.703 12.177 18.8661 11.3549 20.1802C11.0547 20.6603 11.2003 21.293 11.6804 21.5934C12.1604 21.8936 12.7933 21.748 13.0936 21.2678C15.5915 17.273 19.8821 14.847 24.6538 14.847ZM18.2726 42.7886L16.6998 45.5124L13.8726 43.8802L15.4483 41.1515C16.3257 41.7901 17.2714 42.3406 18.2726 42.7886ZM2.05078 49.6234V11.0113C2.05078 9.31506 3.43082 7.93516 5.12695 7.93516H14.2885V9.98594H5.67383C4.80689 9.98594 4.10156 10.6913 4.10156 11.5582V47.0258C4.10156 47.8927 4.80689 48.598 5.67383 48.598H6.52695L4.23623 52.5658C2.97158 52.1794 2.05078 50.9898 2.05078 49.6234ZM16.902 49.0674C16.902 49.0674 8.75957 63.1703 8.74029 63.2038C7.75209 64.9156 5.55557 65.504 3.84385 64.5158C2.1499 63.5378 1.54889 61.3029 2.53189 59.6194L10.6935 45.4829C10.9419 45.0469 11.5205 44.8867 11.953 45.1403C11.955 45.1414 11.9567 45.1428 11.9587 45.144C11.9617 45.1458 11.9649 45.1469 11.9681 45.1486L16.5508 47.7946C16.5547 47.7969 16.5581 47.7996 16.5621 47.8018C16.5639 47.8028 16.5657 47.8034 16.5674 47.8044C17.0063 48.0613 17.1564 48.6265 16.902 49.0674ZM42.8184 62.6056C42.849 62.6056 42.8761 62.6261 42.8842 62.6555L44.3283 67.8627C44.3413 67.8956 44.298 67.953 44.2624 67.9492H25.7376C25.7019 67.9529 25.6583 67.8962 25.6718 67.8625L27.116 62.6553C27.1242 62.6259 27.1512 62.6054 27.1817 62.6054L42.8184 62.6056ZM30.3934 60.5548L31.1743 54.7504H38.8255L39.6065 60.5548H30.3934ZM67.9492 49.6234C67.9492 51.3197 66.5692 52.6996 64.873 52.6996H17.1728L18.678 50.0927C18.95 49.6214 19.0764 49.1062 19.0738 48.598H43.8531C44.4195 48.598 44.8785 48.1389 44.8785 47.5727C44.8785 47.0064 44.4195 46.5473 43.8531 46.5473H18.4704L20.2247 43.5092C21.6299 43.9239 23.1161 44.1474 24.6538 44.1474C33.2973 44.1474 40.3293 37.1154 40.3293 28.472C40.3293 19.8283 33.2972 12.7963 24.6538 12.7963C21.6494 12.7963 18.7875 13.6413 16.3393 15.1769V10.2539H53.6607V46.5473H48.6382C48.0718 46.5473 47.6129 47.0064 47.6129 47.5727C47.6129 48.1389 48.0718 48.598 48.6382 48.598H64.3262C65.1931 48.598 65.8984 47.8927 65.8984 47.0258V11.5582C65.8984 10.6913 65.1931 9.98594 64.3262 9.98594H55.7115V7.93516H64.873C66.5692 7.93516 67.9492 9.31506 67.9492 11.0113V49.6234ZM19.4154 4.10156C18.8491 4.10156 18.39 4.56066 18.39 5.12695C18.39 5.69324 18.8491 6.15234 19.4154 6.15234C19.9817 6.15234 20.4408 5.69324 20.4408 5.12695C20.4408 4.56066 19.9817 4.10156 19.4154 4.10156ZM23.517 4.10156C22.9507 4.10156 22.4916 4.56066 22.4916 5.12695C22.4916 5.69324 22.9507 6.15234 23.517 6.15234C24.0833 6.15234 24.5424 5.69324 24.5424 5.12695C24.5424 4.56066 24.0833 4.10156 23.517 4.10156ZM50.5846 21.223H42.6562C42.0898 21.223 41.6309 21.6821 41.6309 22.2484C41.6309 22.8147 42.0898 23.2738 42.6562 23.2738H50.5846C51.151 23.2738 51.61 22.8147 51.61 22.2484C51.61 21.6821 51.151 21.223 50.5846 21.223ZM50.5846 27.3753H43.6133C43.0469 27.3753 42.5879 27.8344 42.5879 28.4007C42.5879 28.967 43.0469 29.4261 43.6133 29.4261H50.5846C51.151 29.4261 51.61 28.967 51.61 28.4007C51.61 27.8344 51.151 27.3753 50.5846 27.3753ZM24.6538 38.5551C30.2137 38.5551 34.7371 34.0318 34.7371 28.472C34.7371 22.912 30.2137 18.3887 24.6538 18.3887C19.0937 18.3887 14.5704 22.912 14.5704 28.472C14.5704 34.0318 19.0937 38.5551 24.6538 38.5551ZM24.6538 20.4393C29.0829 20.4393 32.6863 24.0427 32.6863 28.4718C32.6863 32.901 29.0829 36.5042 24.6538 36.5042C20.2247 36.5042 16.6212 32.9008 16.6212 28.4718C16.6212 24.0427 20.2247 20.4393 24.6538 20.4393ZM50.5846 33.5277H42.5195C41.9531 33.5277 41.4941 33.9868 41.4941 34.5531C41.4941 35.1194 41.9531 35.5785 42.5195 35.5785H50.5846C51.151 35.5785 51.61 35.1194 51.61 34.5531C51.61 33.9868 51.151 33.5277 50.5846 33.5277ZM51.61 16.096C51.61 15.5297 51.151 15.0706 50.5846 15.0706H38.8979C38.3314 15.0706 37.8725 15.5297 37.8725 16.096C37.8725 16.6623 38.3314 17.1214 38.8979 17.1214H50.5846C51.151 17.1214 51.61 16.6623 51.61 16.096ZM51.61 40.7054C51.61 40.1391 51.151 39.68 50.5846 39.68H38.8979C38.3314 39.68 37.8725 40.1391 37.8725 40.7054C37.8725 41.2717 38.3314 41.7308 38.8979 41.7308H50.5846C51.151 41.7308 51.61 41.2717 51.61 40.7054Z" fill="#F6F6F6"/>
</svg>
