<svg width="86" height="86" viewBox="0 0 86 86" fill="none" xmlns="http://www.w3.org/2000/svg">
<g clip-path="url(#clip0)">
<path d="M31.7723 69.3396C31.4003 68.9623 30.9417 68.7038 30.441 68.5759C30.4981 67.9565 30.6366 67.3489 30.8544 66.763L30.8767 66.7026C31.2468 65.708 31.6293 64.6798 31.9829 63.6543C32.3366 62.6294 32.5282 61.5606 32.5511 60.478C32.5964 58.3731 31.9803 56.2486 30.8157 54.4941C30.0231 53.2999 29.2863 52.05 28.6255 50.7778C28.3053 50.1617 27.5469 49.9209 26.9301 50.2417C26.314 50.5619 26.0745 51.321 26.394 51.9371C27.0954 53.2875 27.8775 54.6148 28.7187 55.8824C28.72 55.8844 28.7213 55.8864 28.7226 55.8883C29.6045 57.2183 30.071 58.8285 30.0369 60.4242C30.0198 61.2456 29.8748 62.0566 29.6064 62.8341C29.262 63.8308 28.8854 64.8451 28.5199 65.8261L28.4976 65.8864C28.1872 66.721 27.9976 67.5871 27.9274 68.4716L16.7942 68.3968C16.8113 68.0936 16.8323 67.7761 16.8546 67.45C17.0252 64.9029 17.2187 62.0166 16.0567 60.0403L5.78637 42.5768C5.00689 41.2514 4.63355 39.7384 4.70704 38.2031L5.94778 12.2742C6.03504 10.4535 7.47853 9.02441 9.30584 8.94961C11.1942 8.87153 12.8174 10.3878 12.9296 12.3267L13.9978 30.7724C13.9427 30.7993 13.8869 30.8256 13.8325 30.8544C11.4698 32.1149 10.4567 35.074 11.5268 37.5909L19.176 55.5865C19.3794 56.0648 19.8446 56.3522 20.3334 56.3522C20.4974 56.3522 20.6641 56.3201 20.8248 56.2512C21.4639 55.9795 21.7618 55.2414 21.4901 54.6023L13.841 36.6067C13.2761 35.2781 13.7918 33.7257 15.0161 33.0728C15.6309 32.7454 16.1263 32.6654 16.8179 32.8005C16.8224 32.8012 16.827 32.8018 16.8316 32.8031C16.9058 32.8182 16.9799 32.8366 17.0527 32.8576C17.0567 32.8589 17.06 32.8602 17.0639 32.8609C18.3689 33.2421 18.8282 34.4631 19.3013 35.5759C19.8944 36.9709 20.4869 38.3658 21.0801 39.7607C22.036 42.0093 22.9914 44.2578 23.9473 46.5057C24.219 47.1454 24.9571 47.4433 25.5962 47.171C26.2353 46.8994 26.5325 46.1612 26.2608 45.5222L21.1161 33.4173C20.5696 32.1326 19.3623 30.9975 18.0435 30.5323C17.5435 30.3558 17.0226 30.2593 16.5003 30.2403C16.495 30.2403 16.4904 30.2396 16.4852 30.2396L15.44 12.181C15.249 8.88137 12.45 6.30607 9.20283 6.4373C6.06523 6.5659 3.58637 9.0231 3.43612 12.1541L2.19538 38.0823C2.09893 40.1085 2.59037 42.1031 3.61852 43.851L13.8889 61.3145C14.6579 62.6222 14.4847 65.2054 14.3456 67.2813C14.32 67.6599 14.2957 68.0267 14.2767 68.3797L13.6435 68.3758C13.6369 68.3758 13.6304 68.3758 13.6238 68.3758C12.0465 68.3758 10.7579 69.6533 10.7474 71.2332L10.7165 84.5749C10.7165 85.2698 11.2795 85.8321 11.9737 85.8321H31.313C32.0079 85.8321 32.5702 85.2698 32.5702 84.5749V75.9914L32.6017 71.3789C32.6063 70.6105 32.3123 69.8862 31.7723 69.3396ZM30.0559 83.3178H13.2315V77.1193L30.0559 77.2322V83.3178ZM30.0651 74.6523L13.24 74.5401L13.2623 71.2496C13.2636 71.0508 13.4257 70.8901 13.6238 70.8901H13.6264L29.7272 70.9977C29.8512 70.999 29.9345 71.0567 29.9824 71.1059C30.031 71.1545 30.088 71.2385 30.0867 71.3625L30.0651 74.6523Z" fill="#F6F6F6"/>
<path d="M82.3184 43.8509C83.3459 42.103 83.8387 40.1084 83.7415 38.0822L82.5008 12.154C82.3506 9.02299 79.8717 6.56579 76.7334 6.43719C73.4843 6.304 70.6879 8.88061 70.497 12.1809L69.4511 30.2395C69.4471 30.2395 69.4432 30.2402 69.4393 30.2402C68.9157 30.2592 68.3941 30.355 67.8934 30.5322C66.3338 31.0827 65.3168 32.286 64.6751 33.761C63.5308 36.3907 62.4312 39.0408 61.3092 41.6798C60.4195 43.7735 59.5291 45.8672 58.6394 47.9609C58.1558 49.0986 57.6185 50.2167 57.0306 51.3078C55.7465 53.6928 54.0039 55.778 53.5341 58.5114C53.225 60.3092 53.3576 61.9266 53.954 63.6548C54.3661 64.849 54.8772 66.0136 55.2361 67.2261C55.2394 67.2379 55.2433 67.2491 55.2466 67.2609C55.3863 67.7438 55.4736 68.2385 55.5084 68.7405C55.0032 68.8671 54.5399 69.1269 54.1646 69.5075C53.6246 70.054 53.3307 70.7784 53.3353 71.5467L53.3668 76.1593V84.7428C53.3668 85.437 53.9297 85.9999 54.6239 85.9999H73.9633C74.6575 85.9999 75.2204 85.437 75.2204 84.7428C75.2204 84.7428 75.2204 76.0209 75.2204 76.013L75.1896 71.4004C75.1791 69.8205 73.8904 68.543 72.3131 68.543C72.3066 68.543 72.3 68.543 72.2934 68.543L71.6688 68.5469C71.6491 68.1427 71.6216 67.7209 71.592 67.2812C71.4523 65.2053 71.2791 62.6221 72.048 61.3144L82.3184 43.8509ZM72.7055 83.485H55.881V77.3994L72.7055 77.2865V83.485ZM72.3105 71.0573H72.3125C72.5113 71.0573 72.6733 71.218 72.6746 71.4168L72.6969 74.7723L55.8725 74.8851L55.8502 71.5297C55.8489 71.4063 55.906 71.3217 55.9545 71.2731C56.0024 71.2246 56.0858 71.1662 56.2098 71.1655L72.3105 71.0573ZM69.8802 60.0402C68.7182 62.0165 68.9117 64.9028 69.0823 67.4499C69.1086 67.8383 69.1329 68.211 69.1512 68.564C69.1512 68.564 58.022 68.6388 58.0213 68.6388C58.0974 68.6381 57.6572 66.5628 57.5863 66.3312C57.3934 65.6987 57.1375 65.0773 56.9105 64.456C56.4768 63.2743 55.927 61.6904 55.9001 60.4241C55.8673 58.9071 56.2682 57.4321 57.0568 56.1356C57.066 56.1212 57.0759 56.1067 57.0844 56.0923C57.1277 56.0221 57.1717 55.9525 57.2169 55.8836C57.7674 55.055 58.2877 54.2066 58.7785 53.3412C59.5928 51.9062 60.3066 50.466 60.9536 48.9444C61.8551 46.8232 62.7566 44.7026 63.6581 42.5813C64.4744 40.6615 65.2296 38.7161 66.0569 36.8015C66.4926 35.7937 66.7905 34.6914 67.4722 33.8102C68.274 32.7729 69.7568 32.4527 70.9208 33.0734C72.1451 33.7262 72.6609 35.2779 72.0959 36.6073L64.4468 54.6022C64.1752 55.2413 64.473 55.9794 65.1121 56.2511C65.7512 56.5234 66.4893 56.2248 66.761 55.5858L74.4101 37.5908C75.4802 35.0732 74.4672 32.1148 72.1045 30.8543C72.05 30.8255 71.9942 30.7992 71.9391 30.7717L73.0073 12.3266C73.1195 10.3871 74.7473 8.87011 76.6304 8.9495C78.4578 9.0243 79.9012 10.4534 79.9885 12.2741L81.2292 38.2023C81.3027 39.7383 80.93 41.2507 80.1506 42.5761L69.8802 60.0402Z" fill="#F6F6F6"/>
<path d="M42.9685 0C30.9902 0 21.2461 9.74481 21.2461 21.7224C21.2461 33.7007 30.9902 43.4455 42.9685 43.4455C49.0764 43.4455 54.9369 40.8512 59.0476 36.3291C59.5147 35.8154 59.4767 35.0202 58.9629 34.553C58.4492 34.0858 57.6533 34.1239 57.1868 34.6376C53.5518 38.6367 48.3691 40.9306 42.9685 40.9306C32.3773 40.9306 23.7604 32.3143 23.7604 21.7224C23.7604 11.1312 32.3773 2.51494 42.9685 2.51494C53.5597 2.51494 62.1767 11.1312 62.1767 21.7224C62.1767 24.6448 61.5376 27.4498 60.2778 30.0605C59.976 30.6858 60.2378 31.4377 60.8631 31.7395C61.4884 32.0414 62.2403 31.7789 62.5421 31.1536C63.9685 28.1997 64.6909 25.026 64.6909 21.7224C64.6909 9.74481 54.9461 0 42.9685 0V0Z" fill="#F6F6F6"/>
<path d="M45.6344 22.019C44.9822 21.4311 44.2762 21.0243 43.5938 20.6313C42.9994 20.2888 42.4377 19.9653 41.985 19.5585C41.5192 19.1386 41.4398 18.5041 41.7836 17.9418C41.9916 17.6006 42.4292 17.371 42.9246 17.3421C43.2651 17.3224 43.7001 17.5061 43.9803 17.7909C44.1023 17.9149 44.2447 18.1071 44.2296 18.3191C44.1798 19.0113 44.7007 19.6136 45.3929 19.6635C46.0865 19.716 46.6875 19.1924 46.738 18.5002C46.803 17.6019 46.4591 16.7227 45.7709 16.0252C45.3391 15.5876 44.7998 15.253 44.2257 15.0496V14.2314C44.2257 13.5365 43.6627 12.9742 42.9685 12.9742C42.2744 12.9742 41.7114 13.5365 41.7114 14.2314V15.0325C40.8388 15.316 40.0993 15.875 39.6374 16.6308C38.6637 18.2252 38.9373 20.1969 40.3027 21.4265C40.9523 22.0117 41.6569 22.4179 42.3387 22.8103C42.9344 23.1534 43.4967 23.4775 43.9514 23.887C44.4179 24.3069 44.4973 24.9414 44.1535 25.5037C43.9449 25.8448 43.5079 26.0745 43.0125 26.1034C42.6726 26.1237 42.237 25.9387 41.9568 25.6546C41.8341 25.5306 41.6924 25.3383 41.7075 25.1264C41.7573 24.4342 41.2364 23.8318 40.5442 23.782C39.8513 23.7308 39.2496 24.2531 39.1991 24.9453C39.1341 25.8435 39.4779 26.7221 40.1662 27.4202C40.598 27.8578 41.1373 28.1918 41.7114 28.3952V29.2141C41.7114 29.9082 42.2744 30.4712 42.9685 30.4712C43.6627 30.4712 44.2257 29.9082 44.2257 29.2141V28.4129C45.0983 28.1295 45.8378 27.5705 46.2997 26.8139C47.2734 25.2202 46.9998 23.2479 45.6344 22.019Z" fill="#F6F6F6"/>
<path d="M42.9685 7.3053C35.0189 7.3053 28.5514 13.7728 28.5514 21.7224C28.5514 29.672 35.0189 36.1395 42.9685 36.1395C50.9182 36.1395 57.3856 29.672 57.3856 21.7224C57.3856 13.7728 50.9182 7.3053 42.9685 7.3053ZM42.9685 33.6252C36.4053 33.6252 31.0657 28.2856 31.0657 21.7224C31.0657 15.1598 36.4053 9.82024 42.9685 9.82024C49.5318 9.82024 54.8713 15.1598 54.8713 21.7224C54.8713 28.2856 49.5318 33.6252 42.9685 33.6252Z" fill="#F6F6F6"/>
</g>
<defs>
<clipPath id="clip0">
<rect width="86" height="86" fill="white"/>
</clipPath>
</defs>
</svg>
