<svg width="24" height="24" viewBox="0 0 24 24" fill="#eb00e1" xmlns="http://www.w3.org/2000/svg">
<g clip-path="url(#clip0_429_912)">
<path d="M2 20H4.00001C4.55001 20 5.00002 19.55 5.00002 19V10C5.00002 9.45 4.55001 9 4.00001 9H2V20ZM21.8301 12.88C21.9401 12.63 22.0001 12.36 22.0001 12.08V11C22.0001 9.9 21.1001 9 20.0001 9H14.5001L15.4201 4.35C15.4701 4.13 15.4401 3.89 15.3401 3.69C15.1101 3.24 14.8201 2.83 14.4601 2.47L14.0001 2L7.59003 8.41C7.21003 8.79 7.00003 9.3 7.00003 9.83V17.67C7.00003 18.95 8.05003 20 9.34004 20H17.4501C18.1501 20 18.8101 19.63 19.1701 19.03L21.8301 12.88V12.88Z" fill="#eb00e1"/>
</g>
<defs>
<clipPath id="clip0_429_912">
<rect width="24.0001" height="24" fill="#eb00e1"/>
</clipPath>
</defs>
</svg>
