<svg width="14" height="14" viewBox="0 0 14 14" fill="none" xmlns="http://www.w3.org/2000/svg">
<path d="M12.577 14L7.81005 9.234C5.65387 10.6564 2.77106 10.2164 1.13737 8.21555C-0.496313 6.2147 -0.350859 3.30214 1.47405 1.474C3.30186 -0.351602 6.21475 -0.497686 8.21604 1.13589C10.2173 2.76946 10.6576 5.6526 9.23505 7.809L14 12.577L12.577 14ZM5.03405 2.014C3.5933 2.01309 2.35253 3.03002 2.07053 4.44291C1.78854 5.85579 2.54386 7.27112 3.87457 7.82336C5.20529 8.37559 6.74079 7.91092 7.54203 6.71352C8.34327 5.51611 8.18711 3.91947 7.16905 2.9C6.6043 2.33135 5.83549 2.0123 5.03405 2.014Z" fill="#2E3A59"/>
</svg>
