<svg width="816" height="615" viewBox="0 0 816 615" fill="none" xmlns="http://www.w3.org/2000/svg">
<g clip-path="url(#clip0_525_351)">
<path opacity="0.41" d="M712.54 521.202C711.773 522.735 711.007 524.177 710.24 525.649C700.043 544.832 686.717 563.509 667.304 573.184C641.695 586.034 611.18 580.851 582.965 576.082C530.399 567.173 476.591 560.656 423.917 568.906C345.175 581.173 269.255 626.301 190.835 612.301C163.251 607.346 137.442 595.262 115.973 577.248C107.891 570.439 100.362 562.68 95.578 553.265C90.4563 543.436 88.6622 532.289 87.9568 521.202C87.9568 520.328 87.8342 519.439 87.8035 518.58C86.0523 482.856 92.9872 447.241 108.014 414.784C120.711 387.428 139.266 361.989 143.866 332.195C150 292.772 130.571 253.501 131.782 213.633C132.581 194.097 138.237 175.067 148.24 158.267C158.243 141.466 172.276 127.425 189.072 117.412C212.87 103.612 240.886 98.6588 266.387 88.0784C285.793 79.9935 303.675 68.6518 319.26 54.543C331.819 43.2572 340.897 26.2978 354.728 16.8061C379.677 -0.275997 428.027 -6.19491 454.708 7.60567C469.506 15.2727 480.347 28.6132 492.002 40.5277C522.318 71.4717 559.979 94.028 594.128 120.694C628.278 147.36 660.265 180.266 672.042 221.898C684.049 264.312 673.698 310.835 686.763 352.881C697.804 388.502 725.099 418.97 728.166 456.14C730.067 478.758 722.722 500.977 712.54 521.202Z" fill="#EB00E1"/>
<path opacity="0.55" d="M712.54 521.202C711.774 522.735 711.007 524.177 710.24 525.649C700.043 544.832 686.717 563.508 667.304 573.184C641.696 586.034 611.18 580.851 582.965 576.082C530.399 567.173 476.591 560.656 423.917 568.906C345.175 581.173 269.255 626.301 190.835 612.301C163.251 607.346 137.442 595.262 115.973 577.248C107.892 570.439 100.363 562.68 95.5782 553.265C90.4565 543.436 88.6624 532.288 87.957 521.202H712.54Z" fill="#EB00E1"/>
<path d="M161.761 563.708C168.309 571.083 179.15 572.464 188.995 573.184C234.946 576.57 281.092 576.324 327.004 572.448C343.872 571.022 360.816 569.09 377.531 566.115C397.818 562.496 417.86 557.314 438.362 555.305C502.536 549.018 567.86 573.982 631.007 560.932C638.291 559.399 646.648 556.332 648.504 549.095C650.145 542.792 645.529 536.214 639.656 533.377C633.783 530.54 627.005 530.556 620.488 530.617C486.113 531.782 351.738 533.469 217.363 534.113C206.629 534.113 195.052 532.779 184.778 536.521C176.221 539.649 152.269 553.035 161.761 563.708Z" fill="url(#paint0_linear_525_351)"/>
<path d="M308.219 76.6393H206.859C186.796 76.6393 170.532 92.903 170.532 112.965V511.189C170.532 531.251 186.796 547.515 206.859 547.515H308.219C328.282 547.515 344.546 531.251 344.546 511.189V112.965C344.546 92.903 328.282 76.6393 308.219 76.6393Z" fill="#EB00E1"/>
<path d="M308.219 76.6393H206.859C186.796 76.6393 170.532 92.903 170.532 112.965V511.189C170.532 531.251 186.796 547.515 206.859 547.515H308.219C328.282 547.515 344.546 531.251 344.546 511.189V112.965C344.546 92.903 328.282 76.6393 308.219 76.6393Z" fill="url(#paint1_linear_525_351)"/>
<path d="M373.866 76.6393H236.501C213.999 76.6393 195.757 94.8802 195.757 117.382V506.773C195.757 529.274 213.999 547.515 236.501 547.515H373.866C396.368 547.515 414.609 529.274 414.609 506.773V117.382C414.609 94.8802 396.368 76.6393 373.866 76.6393Z" fill="#EB00E1"/>
<path d="M400.133 112.107H213.683V511.327H400.133V112.107Z" fill="white"/>
<path d="M434.176 435.592L434.82 524.882L425.404 525.772C425.404 525.772 413.214 486.777 414.67 480.92C416.127 475.062 419.271 461.185 419.271 461.185C419.271 461.185 410.07 443.643 410.377 438.184C410.679 434.733 411.949 431.438 414.042 428.677L434.176 435.592Z" fill="#F3BD8F"/>
<path d="M394.935 435.592C394.935 435.592 394.935 449.73 393.478 453.135C392.021 456.539 353.011 518.457 353.011 518.457L347.276 513.458C347.276 513.458 357.887 470.201 365.677 461.43L373.467 452.659L374.663 433.875L394.935 435.592Z" fill="#F3BD8F"/>
<path d="M380.904 219.215C380.536 215.074 378.865 211.333 379.678 206.947C381.058 199.449 388.111 193.929 395.579 192.395C403.047 190.862 410.822 192.61 418.013 195.156C422.831 196.66 427.31 199.087 431.201 202.301C440.693 210.827 441.812 224.965 445.508 237.186C446.949 241.924 449.065 246.785 453.175 249.622C458.557 253.394 465.811 252.689 472.067 254.651C476.006 255.968 479.506 258.343 482.186 261.515C484.867 264.687 486.623 268.535 487.263 272.638C488.291 279.891 485.96 288.31 490.668 293.922C493.121 296.851 497.093 298.338 499.147 301.589C500.17 303.413 500.832 305.418 501.095 307.492C502.276 313.779 502.628 321.492 497.522 325.28C494.941 326.849 491.986 327.696 488.965 327.733C481.651 328.377 474.106 328.393 467.175 326.016C460.95 323.869 455.537 319.882 450.231 316.018C439.343 307.998 428.41 299.948 418.581 290.656C412.447 284.875 406.712 278.894 400.18 273.574C395.809 270.016 392.512 263.928 388.173 260.877C385.934 259.344 383.204 259.344 380.996 257.258C379.257 255.555 377.966 253.448 377.239 251.125C375.599 245.804 376.534 240.069 377.883 234.687C379.033 230.086 381.288 224.704 380.95 219.905L380.904 219.215Z" fill="#3E3E54"/>
<path d="M428.579 228.17C430.636 233.156 432.342 238.28 433.685 243.504C435.218 248.671 437.304 253.839 440.938 257.841C442.889 259.682 444.723 261.643 446.428 263.714C449.755 268.544 449.372 275.138 447.317 280.581C446.305 283.265 444.526 286.117 441.69 286.561C438.853 287.006 436.507 285.028 434.467 283.127L412.585 263.192C409.519 260.683 406.86 257.714 404.703 254.391C401.866 249.469 401.376 243.488 402.004 237.83C402.386 232.923 403.965 228.184 406.605 224.029C408.721 220.963 414.072 215.458 418.289 216.669C422.951 218.126 426.708 224.198 428.579 228.17Z" fill="url(#paint2_linear_525_351)"/>
<path d="M444.665 348.051L496.955 347.361L516.138 406.811L539.37 488.679H487.524L444.665 348.051ZM509.928 408.758L492.247 353.97L453.405 354.491L492.324 482.254H530.767L509.928 408.758Z" fill="#EB00E1"/>
<path d="M602.332 326.154H520.447V475.307H602.332V326.154Z" fill="#EB00E1"/>
<path d="M602.332 326.154H520.447V475.307H602.332V326.154Z" fill="url(#paint3_linear_525_351)"/>
<path d="M585.894 326.522V370.76L556.283 474.587H596.49L605.276 443.137L602.348 326.154L585.894 326.522Z" fill="url(#paint4_linear_525_351)"/>
<path d="M668.37 356.22L604.091 338.055L571.002 455.145L635.281 473.309L668.37 356.22Z" fill="#EB00E1"/>
<path d="M668.374 356.043L604.095 337.878L571.006 454.968L635.285 473.132L668.374 356.043Z" fill="url(#paint5_linear_525_351)"/>
<path d="M525.875 532.258C524.409 529.832 523.934 526.935 524.548 524.168C525.161 521.402 526.817 518.977 529.171 517.399C531.525 515.821 534.396 515.209 537.189 515.692C539.982 516.174 542.481 517.714 544.169 519.991V519.991C545.057 521.189 545.693 522.555 546.038 524.006C546.383 525.457 546.43 526.963 546.176 528.433C545.922 529.903 545.372 531.306 544.56 532.557C543.748 533.809 542.691 534.882 541.452 535.713C540.213 536.544 538.819 537.114 537.353 537.39C535.887 537.667 534.38 537.642 532.924 537.319C531.468 536.996 530.092 536.381 528.881 535.511C527.669 534.641 526.647 533.534 525.875 532.258V532.258ZM538.787 523.594C538.29 522.824 537.574 522.22 536.732 521.859C535.889 521.498 534.958 521.397 534.058 521.569C533.158 521.741 532.329 522.177 531.679 522.823C531.029 523.469 530.586 524.294 530.408 525.194C530.23 526.093 530.324 527.024 530.679 527.869C531.035 528.714 531.634 529.434 532.401 529.936C533.168 530.438 534.067 530.7 534.983 530.687C535.9 530.674 536.792 530.389 537.545 529.866C538.524 529.185 539.202 528.151 539.433 526.981C539.665 525.811 539.433 524.597 538.787 523.594V523.594Z" fill="#2E2E3F"/>
<path d="M606.641 532.258C605.127 529.83 604.616 526.908 605.216 524.11C605.817 521.312 607.482 518.857 609.859 517.264C612.237 515.671 615.14 515.065 617.956 515.574C620.772 516.083 623.28 517.667 624.95 519.991V519.991C626.465 522.419 626.975 525.341 626.375 528.139C625.774 530.937 624.109 533.391 621.732 534.984C619.355 536.577 616.451 537.183 613.635 536.674C610.819 536.166 608.311 534.582 606.641 532.258V532.258ZM619.552 523.594C619.054 522.825 618.337 522.222 617.494 521.862C616.651 521.503 615.719 521.404 614.819 521.578C613.919 521.752 613.091 522.191 612.442 522.838C611.793 523.485 611.352 524.312 611.176 525.212C611 526.111 611.097 527.043 611.454 527.887C611.812 528.731 612.413 529.45 613.181 529.95C613.95 530.45 614.85 530.709 615.766 530.694C616.683 530.679 617.574 530.391 618.326 529.866C619.303 529.183 619.977 528.148 620.206 526.978C620.435 525.808 620.2 524.595 619.552 523.594Z" fill="#2E2E3F"/>
<path d="M444.925 308.274C445.32 309.552 445.888 310.769 446.612 311.893C448.069 313.631 449.92 314.998 452.009 315.88C460.229 320.112 472.818 324.651 479.749 330.754C480.606 331.421 481.312 332.262 481.819 333.223C482.816 335.385 481.819 337.823 480.899 340.077C480.483 341.31 479.747 342.41 478.768 343.266C476.989 344.555 474.52 344.003 472.42 343.374C464.293 340.964 456.303 338.118 448.483 334.848C444.117 333.092 439.875 331.043 435.786 328.715C434.222 328.03 432.87 326.94 431.869 325.556C430.869 324.173 430.257 322.548 430.097 320.848C428.613 312.985 427.62 305.037 427.122 297.05L425.588 278.266C425.297 274.647 414.302 262.027 417.615 259.528C424.086 254.667 433.532 267.9 435.019 270.614C439.175 278.25 443.3 303.643 444.925 308.274Z" fill="#EB00E1"/>
<path d="M444.925 308.274C445.32 309.552 445.888 310.769 446.612 311.893C448.069 313.631 449.92 314.998 452.009 315.88C460.229 320.112 472.818 324.651 479.749 330.754C480.606 331.421 481.312 332.262 481.819 333.223C482.816 335.385 481.819 337.823 480.899 340.077C480.483 341.31 479.747 342.41 478.768 343.266C476.989 344.555 474.52 344.003 472.42 343.374C464.293 340.964 456.303 338.118 448.483 334.848C444.117 333.092 439.875 331.043 435.786 328.715C434.222 328.03 432.87 326.94 431.869 325.556C430.869 324.173 430.257 322.548 430.097 320.848C428.613 312.985 427.62 305.037 427.122 297.05L425.588 278.266C425.297 274.647 414.302 262.027 417.615 259.528C424.086 254.667 433.532 267.9 435.019 270.614C439.175 278.25 443.3 303.643 444.925 308.274Z" fill="url(#paint6_linear_525_351)"/>
<path d="M439.819 429.213C439.943 430.733 439.566 432.252 438.746 433.538C437.874 434.422 436.767 435.04 435.556 435.316C429.422 437.249 377.285 439.211 367.548 437.402C363.761 423.417 363.623 408.635 365.524 394.267C366.275 388.67 367.379 382.966 370.339 378.167C371.087 376.849 372.138 375.729 373.406 374.901C375.281 374.003 377.36 373.617 379.432 373.781C394.46 373.628 409.748 373.275 424.684 375.407C429.284 376.066 431.784 377.523 433.409 382.077C435.751 389.26 437.384 396.656 438.286 404.158C439.459 412.456 439.971 420.834 439.819 429.213V429.213Z" fill="#2E2E3F"/>
<path d="M367.578 437.402L369.909 437.801C370.467 437.511 371.009 437.194 371.535 436.85C372.815 436.137 373.896 435.114 374.678 433.875C375.245 432.608 375.517 431.229 375.476 429.842C375.905 418.265 373.697 406.504 376.058 395.157C376.902 391.078 378.589 387.398 379.785 383.472C380.889 379.884 378.435 377.737 375.537 375.637C375.029 375.252 374.484 374.919 373.912 374.64L373.39 374.901C372.114 375.72 371.061 376.842 370.323 378.167C367.348 382.966 366.244 388.67 365.493 394.267C363.653 408.62 363.776 423.417 367.578 437.402Z" fill="url(#paint7_linear_525_351)"/>
<path d="M404.55 248.457C404.622 250.8 405.549 253.037 407.157 254.743C409.549 256.89 413.183 256.768 416.158 257.964C416.539 258.093 416.885 258.308 417.17 258.592C417.389 258.856 417.546 259.165 417.63 259.497C418.004 261.065 417.881 262.71 417.278 264.205C416.361 266.436 414.968 268.44 413.196 270.077C411.424 271.714 409.316 272.944 407.019 273.681C402.407 275.116 397.524 275.457 392.758 274.678C391.14 274.581 389.566 274.114 388.158 273.313C386.681 272.196 385.51 270.724 384.753 269.035C383.818 267.495 383.198 265.786 382.929 264.005C382.804 263.113 382.912 262.203 383.243 261.365C383.573 260.527 384.115 259.788 384.815 259.221C385.472 258.813 386.178 258.489 386.915 258.255C388.07 257.803 389.179 257.244 390.228 256.584C391.299 256.037 392.138 255.122 392.589 254.007C392.763 253.054 392.721 252.075 392.467 251.14C391.884 247.982 391.884 244.745 392.467 241.587C392.605 240.652 392.895 239.745 393.325 238.903C393.723 238.182 394.281 237.561 394.956 237.088C395.63 236.615 396.405 236.303 397.219 236.176C398.033 236.048 398.865 236.109 399.652 236.353C400.439 236.598 401.16 237.019 401.759 237.585C404.78 240.375 404.136 244.792 404.55 248.457Z" fill="#F3BD8F"/>
<path d="M418.857 231.62C419.04 233.771 418.859 235.938 418.32 238.029C416.787 242.998 411.527 246.202 406.328 246.417C404.624 246.551 402.914 246.228 401.375 245.482C400.498 244.967 399.684 244.349 398.953 243.642C395.318 240.314 391.976 236.343 390.871 231.543C390.49 229.719 390.331 227.855 390.396 225.992C390.35 223.256 390.818 220.536 391.776 217.973C392.75 215.697 394.298 213.712 396.268 212.212C398.238 210.713 400.563 209.749 403.016 209.416C408.061 208.772 412.769 211.318 416.449 214.476C418.289 216.01 417.983 219.184 418.243 221.545C418.519 224.904 418.749 228.262 418.857 231.62Z" fill="#F3BD8F"/>
<path d="M371.152 379.347C373.485 380.942 376.147 381.99 378.941 382.414C393.857 385.719 409.319 385.693 424.224 382.338C427.291 381.617 430.802 380.482 432.152 377.569C432.761 375.972 432.992 374.256 432.826 372.554C432.479 356.515 432.121 340.466 431.753 324.406C431.354 306.158 430.955 287.85 428.272 269.801C427.482 266.075 426.005 262.529 423.917 259.344C422.169 256.967 414.287 258.24 407.709 253.977C405.899 252.811 409.825 258.853 403.921 261.352C398.017 263.852 390.979 251.769 387.237 256.645C385.136 259.374 378.497 257.35 376.396 260.064C374.709 262.242 373.666 266.857 373.007 272.408C371.596 284.215 371.949 300.239 371.642 306.066C370.538 326.46 372.256 352.482 365.508 369.334C364.067 372.984 368.1 376.94 371.152 379.347Z" fill="#EB00E1"/>
<path d="M371.152 379.347C373.485 380.942 376.147 381.99 378.941 382.414C382.667 383.239 386.434 383.858 390.227 384.27L391.301 384.132C388.525 375.085 388.387 365.485 388.464 356.024C388.525 350.811 388.612 345.587 388.725 340.353C388.725 337.056 388.909 333.591 390.611 330.769C392.313 327.948 396.177 326.169 399.014 327.871C394.138 324.927 390.151 312.537 388.157 307.431C385.283 300.062 383.271 292.384 382.162 284.553C381.395 279.186 381.686 269.725 373.452 272.286L373.007 272.439C371.596 284.246 371.949 300.27 371.642 306.097C370.538 326.491 372.256 352.513 365.508 369.365C364.067 372.984 368.1 376.94 371.152 379.347Z" fill="url(#paint8_linear_525_351)"/>
<path d="M426.325 524.744C425.853 524.787 425.415 525.006 425.098 525.358C424.909 525.737 424.835 526.163 424.883 526.584C424.883 529.16 423.227 531.537 423.35 534.098C423.35 536.413 424.883 538.56 424.653 540.86C424.653 541.32 424.531 541.842 424.853 542.164C425.067 542.341 425.328 542.453 425.604 542.486C432.126 543.723 438.674 544.811 445.247 545.752C446.462 546.067 447.749 545.925 448.866 545.353C449.376 544.95 449.772 544.422 450.016 543.82C451.795 540.185 450.216 535.754 447.808 532.518C441.858 524.668 436.154 522.766 426.325 524.744Z" fill="#2E2E3F"/>
<path d="M335.622 524.346C336.077 526.427 337.256 528.28 338.949 529.574C343.131 533.425 347.905 536.578 353.088 538.913C354.138 539.498 355.34 539.754 356.538 539.649C357.436 539.376 358.22 538.819 358.774 538.061C359.327 537.303 359.619 536.386 359.605 535.447C359.536 533.563 359.043 531.718 358.163 530.05C355.664 524.254 353.916 515.743 347.23 513.458C341.433 511.496 334.993 518.58 335.622 524.346Z" fill="#2E2E3F"/>
<path d="M426.202 524.744C425.731 524.787 425.293 525.006 424.975 525.358C424.787 525.737 424.712 526.163 424.761 526.584C424.761 529.16 423.105 531.537 423.227 534.098C423.304 536.413 424.761 538.56 424.531 540.86C424.531 541.32 424.408 541.842 424.73 542.164C424.944 542.341 425.205 542.453 425.481 542.486C432.004 543.723 438.551 544.811 445.125 545.752C446.339 546.067 447.627 545.925 448.744 545.353C449.254 544.95 449.65 544.422 449.894 543.82C451.672 540.185 450.093 535.754 447.685 532.518C441.736 524.668 436.031 522.766 426.202 524.744Z" fill="url(#paint9_linear_525_351)"/>
<path d="M338.949 529.574C343.131 533.425 347.905 536.578 353.087 538.913C354.138 539.498 355.34 539.754 356.538 539.649" fill="url(#paint10_linear_525_351)"/>
<path d="M383.879 306.879C383.659 308.506 383.832 310.163 384.385 311.709C385.321 313.856 387.452 315.144 389.537 316.309L435.541 342.377C437.703 343.604 440.003 344.984 440.923 347.299C442.947 352.436 436.599 357.144 431.094 357.558C425.313 357.987 419.608 356.239 414.134 354.353C396.829 348.381 380.115 340.82 364.205 331.766C362.236 331.037 360.585 329.64 359.54 327.819C358.494 325.997 358.121 323.867 358.485 321.799C358.443 309.086 359.417 296.39 361.399 283.832C362.488 276.962 364.036 269.801 368.637 264.573C375.476 256.814 388.004 256.568 389.077 267.977C390.366 280.827 384.753 294.075 383.879 306.879Z" fill="#EB00E1"/>
<path d="M383.879 306.879C383.659 308.506 383.832 310.163 384.385 311.709C385.321 313.856 387.452 315.144 389.537 316.309L435.541 342.377C437.703 343.604 440.003 344.984 440.923 347.299C442.947 352.436 436.599 357.144 431.094 357.558C425.313 357.987 419.608 356.239 414.134 354.353C396.829 348.381 380.115 340.82 364.205 331.766C362.236 331.037 360.585 329.64 359.54 327.819C358.494 325.997 358.121 323.867 358.485 321.799C358.443 309.086 359.417 296.39 361.399 283.832C362.488 276.962 364.036 269.801 368.637 264.573C375.476 256.814 388.004 256.568 389.077 267.977C390.366 280.827 384.753 294.075 383.879 306.879Z" fill="url(#paint11_linear_525_351)"/>
<path d="M446.949 346.64C450.27 346.638 453.469 347.893 455.904 350.151C457.087 351.303 457.885 352.792 458.187 354.415C458.489 356.038 458.281 357.714 457.591 359.214C457.095 360.22 456.234 360.999 455.184 361.391C454.26 361.645 453.282 361.613 452.377 361.299C449.74 360.517 447.639 358.493 445.094 357.466C444.477 357.155 443.771 357.074 443.1 357.236C442.673 357.453 442.268 357.71 441.889 358.002C441.356 358.301 440.759 358.468 440.148 358.49C439.537 358.511 438.93 358.386 438.377 358.125C437.279 357.589 436.355 356.755 435.709 355.718C434.774 354.414 434.324 352.825 434.436 351.225C434.697 348.756 436.123 347.974 438.255 347.713C441.121 347.132 444.028 346.774 446.949 346.64V346.64Z" fill="#F3BD8F"/>
<path d="M489.732 338.636C490.966 340.157 491.809 341.957 492.186 343.88C492.394 344.782 492.362 345.723 492.094 346.609C491.717 347.472 491.091 348.202 490.295 348.704C489.5 349.207 488.572 349.46 487.631 349.431C485.752 349.345 483.925 348.78 482.326 347.79C479.363 346.071 476.528 344.139 473.846 342.009C473.273 341.628 472.757 341.169 472.312 340.644C471.819 339.83 471.617 338.872 471.74 337.927C471.862 336.983 472.302 336.108 472.987 335.446C477.434 330.999 486.435 334.541 489.732 338.636Z" fill="#F3BD8F"/>
<path d="M498.427 372.922H683.267L640.806 488.648H531.365L498.427 372.922ZM673.974 379.409H507.014L536.257 482.146H636.267L673.974 379.409Z" fill="#EB00E1"/>
<path d="M452.086 372.922H640.086L597.609 488.648H488.168L452.086 372.922ZM630.808 379.409H463.833L493.075 482.146H593.162L630.808 379.409Z" fill="#EB00E1"/>
<path d="M487.631 521.003H614.523V514.516H494.133V485.397H487.631V521.003Z" fill="#EB00E1"/>
<path d="M530.107 521.003H633.415V514.516H536.594V485.397H530.107V521.003Z" fill="#EB00E1"/>
<path d="M497.537 526.109C497.537 523.928 498.184 521.796 499.396 519.982C500.608 518.169 502.331 516.756 504.347 515.922C506.362 515.088 508.58 514.87 510.719 515.297C512.858 515.723 514.823 516.775 516.364 518.318C517.905 519.862 518.954 521.828 519.378 523.967C519.802 526.107 519.581 528.324 518.744 530.339C517.907 532.353 516.492 534.074 514.677 535.283C512.862 536.493 510.728 537.137 508.547 537.134C505.627 537.126 502.829 535.961 500.765 533.895C498.702 531.829 497.541 529.029 497.537 526.109V526.109ZM504.024 526.109C504.008 527.025 504.267 527.925 504.767 528.693C505.266 529.461 505.984 530.063 506.828 530.42C507.671 530.778 508.603 530.875 509.502 530.7C510.401 530.525 511.228 530.086 511.876 529.438C512.524 528.79 512.964 527.963 513.139 527.064C513.314 526.164 513.216 525.233 512.859 524.389C512.501 523.546 511.9 522.828 511.131 522.329C510.363 521.829 509.463 521.57 508.547 521.585C507.354 521.605 506.214 522.088 505.37 522.932C504.526 523.776 504.043 524.915 504.024 526.109V526.109Z" fill="#2E2E3F"/>
<path d="M578.15 532.258C576.684 529.832 576.209 526.935 576.823 524.168C577.436 521.402 579.092 518.977 581.446 517.399C583.8 515.821 586.671 515.209 589.464 515.692C592.257 516.174 594.756 517.714 596.444 519.991V519.991C597.332 521.189 597.968 522.555 598.313 524.006C598.658 525.457 598.705 526.963 598.451 528.433C598.197 529.903 597.647 531.306 596.835 532.557C596.023 533.809 594.966 534.882 593.727 535.713C592.488 536.544 591.094 537.114 589.628 537.39C588.162 537.667 586.655 537.642 585.199 537.319C583.743 536.996 582.367 536.381 581.156 535.511C579.944 534.641 578.921 533.534 578.15 532.258V532.258ZM591.062 523.594C590.565 522.824 589.849 522.22 589.007 521.859C588.164 521.498 587.233 521.397 586.333 521.569C585.433 521.741 584.604 522.177 583.954 522.823C583.303 523.469 582.861 524.294 582.683 525.194C582.505 526.093 582.599 527.024 582.954 527.869C583.31 528.714 583.909 529.434 584.676 529.936C585.443 530.438 586.342 530.7 587.258 530.687C588.175 530.674 589.067 530.389 589.82 529.866C590.799 529.185 591.476 528.151 591.708 526.981C591.94 525.811 591.708 524.597 591.062 523.594V523.594Z" fill="#2E2E3F"/>
<path d="M668.745 396.107H463.526V400.999H668.745V396.107Z" fill="#EB00E1"/>
<path d="M664.344 412.561H468.877V417.452H664.344V412.561Z" fill="#EB00E1"/>
<path d="M658.012 429.014H474.245V433.906H658.012V429.014Z" fill="#EB00E1"/>
<path d="M651.678 445.467H479.611V450.359H651.678V445.467Z" fill="#EB00E1"/>
<path d="M645.33 461.906H484.963V466.797H645.33V461.906Z" fill="#EB00E1"/>
<path d="M655.673 374.752L616.2 482.967L620.795 484.643L660.269 376.428L655.673 374.752Z" fill="#EB00E1"/>
<path d="M598.621 374.948L567.183 481.694L571.875 483.076L603.313 376.33L598.621 374.948Z" fill="#EB00E1"/>
<path d="M550.624 374.079L546.972 483.027L551.861 483.191L555.513 374.243L550.624 374.079Z" fill="#EB00E1"/>
<path d="M494.385 377.109L489.71 378.549L522.595 485.307L527.27 483.868L494.385 377.109Z" fill="#EB00E1"/>
<path d="M408.69 215.136C412.8 217.589 417.891 217.083 422.706 216.485C422.237 213.638 420.802 211.039 418.642 209.125C417.115 207.651 415.326 206.476 413.367 205.659C410.684 204.571 403.553 203.175 401.79 206.533C400.348 209.278 406.62 213.909 408.69 215.136Z" fill="#3E3E54"/>
<path d="M321.039 519.239H294.219C289.646 519.239 285.938 522.946 285.938 527.52V527.535C285.938 532.108 289.646 535.815 294.219 535.815H321.039C325.612 535.815 329.319 532.108 329.319 527.535V527.52C329.319 522.946 325.612 519.239 321.039 519.239Z" fill="url(#paint12_linear_525_351)"/>
</g>
<rect x="457.5" y="101.5" width="253" height="60" fill="#F796F3" stroke="white" stroke-width="5"/>
<path d="M529.086 148L519.969 116.805H519.781C519.938 120.086 520.016 122.164 520.016 123.039V148H517.812V113.734H521.211L528.898 139.938C529.586 142.25 530.031 144.219 530.234 145.844H530.422C530.578 144.688 531.062 142.734 531.875 139.984L539.492 113.734H543.008V148H540.711V123.227C540.711 122.258 540.789 120.133 540.945 116.852H540.758L531.688 148H529.086ZM560.023 148L559.742 144.438H559.648C558.43 147.125 556.586 148.469 554.117 148.469C552.461 148.469 551.125 147.812 550.109 146.5C549.109 145.172 548.609 143.398 548.609 141.18C548.609 138.758 549.336 136.844 550.789 135.438C552.242 134.016 554.281 133.242 556.906 133.117L559.648 132.977V130.867C559.648 128.492 559.352 126.766 558.758 125.688C558.164 124.594 557.18 124.047 555.805 124.047C554.352 124.047 552.867 124.523 551.352 125.477L550.391 123.719C552.156 122.625 554.008 122.078 555.945 122.078C558.039 122.078 559.547 122.742 560.469 124.07C561.391 125.383 561.852 127.586 561.852 130.68V148H560.023ZM554.609 146.57C556.203 146.57 557.438 145.789 558.312 144.227C559.203 142.648 559.648 140.422 559.648 137.547V134.898L557 135.039C554.953 135.148 553.43 135.719 552.43 136.75C551.445 137.766 550.953 139.258 550.953 141.227C550.953 143.07 551.281 144.422 551.938 145.281C552.594 146.141 553.484 146.57 554.609 146.57ZM578.633 122.57V124.68H570.781V148H568.555V122.57H578.633ZM592.273 148L591.992 144.438H591.898C590.68 147.125 588.836 148.469 586.367 148.469C584.711 148.469 583.375 147.812 582.359 146.5C581.359 145.172 580.859 143.398 580.859 141.18C580.859 138.758 581.586 136.844 583.039 135.438C584.492 134.016 586.531 133.242 589.156 133.117L591.898 132.977V130.867C591.898 128.492 591.602 126.766 591.008 125.688C590.414 124.594 589.43 124.047 588.055 124.047C586.602 124.047 585.117 124.523 583.602 125.477L582.641 123.719C584.406 122.625 586.258 122.078 588.195 122.078C590.289 122.078 591.797 122.742 592.719 124.07C593.641 125.383 594.102 127.586 594.102 130.68V148H592.273ZM586.859 146.57C588.453 146.57 589.688 145.789 590.562 144.227C591.453 142.648 591.898 140.422 591.898 137.547V134.898L589.25 135.039C587.203 135.148 585.68 135.719 584.68 136.75C583.695 137.766 583.203 139.258 583.203 141.227C583.203 143.07 583.531 144.422 584.188 145.281C584.844 146.141 585.734 146.57 586.859 146.57ZM603.453 133.516C604.172 133.516 604.836 133.312 605.445 132.906C606.07 132.5 606.555 131.922 606.898 131.172C607.258 130.406 607.438 129.523 607.438 128.523C607.438 127.023 607.094 125.906 606.406 125.172C605.734 124.422 604.828 124.047 603.688 124.047C602.5 124.047 601.305 124.43 600.102 125.195L599.047 123.461C600.516 122.539 602.148 122.078 603.945 122.078C605.773 122.078 607.195 122.633 608.211 123.742C609.227 124.852 609.734 126.406 609.734 128.406C609.734 129.797 609.406 131.016 608.75 132.062C608.109 133.094 607.289 133.812 606.289 134.219V134.406C607.617 134.844 608.633 135.609 609.336 136.703C610.055 137.797 610.414 139.18 610.414 140.852C610.414 143.18 609.789 145.031 608.539 146.406C607.305 147.781 605.688 148.469 603.688 148.469C601.5 148.469 599.805 147.914 598.602 146.805V144.484C599.258 145 599.992 145.461 600.805 145.867C601.617 146.258 602.578 146.453 603.688 146.453C605.094 146.453 606.18 145.977 606.945 145.023C607.727 144.07 608.117 142.68 608.117 140.852C608.117 139.242 607.688 137.953 606.828 136.984C605.969 136.016 604.797 135.531 603.312 135.531H602.164V133.516H603.453ZM618.125 122.57V139.75L617.961 144.555L626.984 122.57H629.773V148H627.57V131.547L627.664 126.016L618.641 148H615.898V122.57H618.125ZM638.844 122.57V133.703H648.289V122.57H650.492V148H648.289V135.719H638.844V148H636.617V122.57H638.844Z" fill="white"/>
<defs>
<linearGradient id="paint0_linear_525_351" x1="405.163" y1="318.563" x2="403.706" y2="687.07" gradientUnits="userSpaceOnUse">
<stop offset="0.01"/>
<stop offset="0.13" stop-opacity="0.69"/>
<stop offset="1" stop-opacity="0"/>
</linearGradient>
<linearGradient id="paint1_linear_525_351" x1="-4886.32" y1="137012" x2="64064.5" y2="121117" gradientUnits="userSpaceOnUse">
<stop offset="0.01"/>
<stop offset="0.13" stop-opacity="0.69"/>
<stop offset="1" stop-opacity="0"/>
</linearGradient>
<linearGradient id="paint2_linear_525_351" x1="11385.8" y1="10248.2" x2="9686.38" y2="15564.5" gradientUnits="userSpaceOnUse">
<stop offset="0.01"/>
<stop offset="0.13" stop-opacity="0.69"/>
<stop offset="1" stop-opacity="0"/>
</linearGradient>
<linearGradient id="paint3_linear_525_351" x1="24783.1" y1="50188.2" x2="31086.6" y2="30351.5" gradientUnits="userSpaceOnUse">
<stop offset="0.01"/>
<stop offset="0.13" stop-opacity="0.69"/>
<stop offset="1" stop-opacity="0"/>
</linearGradient>
<linearGradient id="paint4_linear_525_351" x1="21036.5" y1="41210.5" x2="12797.5" y2="40809.8" gradientUnits="userSpaceOnUse">
<stop offset="0.01"/>
<stop offset="0.13" stop-opacity="0.69"/>
<stop offset="1" stop-opacity="0"/>
</linearGradient>
<linearGradient id="paint5_linear_525_351" x1="25850.7" y1="38943.7" x2="19274.6" y2="31203.8" gradientUnits="userSpaceOnUse">
<stop offset="0.01"/>
<stop offset="0.13" stop-opacity="0.69"/>
<stop offset="1" stop-opacity="0"/>
</linearGradient>
<linearGradient id="paint6_linear_525_351" x1="-457632" y1="18790.8" x2="-456954" y2="17912.7" gradientUnits="userSpaceOnUse">
<stop offset="0.01"/>
<stop offset="0.13" stop-opacity="0.69"/>
<stop offset="1" stop-opacity="0"/>
</linearGradient>
<linearGradient id="paint7_linear_525_351" x1="-102295" y1="17196.9" x2="-102455" y2="17196.9" gradientUnits="userSpaceOnUse">
<stop offset="0.01"/>
<stop offset="0.13" stop-opacity="0.69"/>
<stop offset="1" stop-opacity="0"/>
</linearGradient>
<linearGradient id="paint8_linear_525_351" x1="-234298" y1="24767.1" x2="-231040" y2="24711.8" gradientUnits="userSpaceOnUse">
<stop offset="0.01"/>
<stop offset="0.13" stop-opacity="0.69"/>
<stop offset="1" stop-opacity="0"/>
</linearGradient>
<linearGradient id="paint9_linear_525_351" x1="-185673" y1="8194.4" x2="-186164" y2="8194.4" gradientUnits="userSpaceOnUse">
<stop offset="0.01"/>
<stop offset="0.13" stop-opacity="0.69"/>
<stop offset="1" stop-opacity="0"/>
</linearGradient>
<linearGradient id="paint10_linear_525_351" x1="-116043" y1="4064.6" x2="-116244" y2="4064.6" gradientUnits="userSpaceOnUse">
<stop offset="0.01"/>
<stop offset="0.13" stop-opacity="0.69"/>
<stop offset="1" stop-opacity="0"/>
</linearGradient>
<linearGradient id="paint11_linear_525_351" x1="-587667" y1="23268" x2="-586048" y2="20630.1" gradientUnits="userSpaceOnUse">
<stop offset="0.01"/>
<stop offset="0.13" stop-opacity="0.69"/>
<stop offset="1" stop-opacity="0"/>
</linearGradient>
<linearGradient id="paint12_linear_525_351" x1="6519.33" y1="5611.24" x2="6517.11" y2="7042.27" gradientUnits="userSpaceOnUse">
<stop offset="0.01"/>
<stop offset="0.13" stop-opacity="0.69"/>
<stop offset="1" stop-opacity="0"/>
</linearGradient>
<clipPath id="clip0_525_351">
<rect width="816" height="615" fill="white"/>
</clipPath>
</defs>
</svg>
